<?xml version="1.0" standalone="no"?>
<!DOCTYPE svg PUBLIC "-//W3C//DTD SVG 1.1//EN" "http://www.w3.org/Graphics/SVG/1.1/DTD/svg11.dtd" >
<svg xmlns="http://www.w3.org/2000/svg" xmlns:xlink="http://www.w3.org/1999/xlink" version="1.1">
<metadata>
Created by FontForge 20201107 at Wed Feb 19 11:53:18 2020
 By 
(c) FontSite Inc., 1996-2018. All Rights Reserved. www.fontsite.com
</metadata>
<defs>
<font id="." horiz-adv-x="1161" >
  <font-face 
    font-family="."
    font-weight="650"
    font-stretch="normal"
    units-per-em="2048"
    panose-1="2 11 7 2 2 2 4 2 2 3"
    ascent="1542"
    descent="-506"
    x-height="887"
    cap-height="1366"
    bbox="-313 -494 2333 1925"
    underline-thickness="239"
    underline-position="-1166"
    unicode-range="U+000D-25FC"
  />
<missing-glyph horiz-adv-x="748" 
d="M68 0v1365h544v-1365h-544zM136 68h408v1229h-408v-1229z" />
    <glyph glyph-name=".notdef" horiz-adv-x="748" 
d="M68 0v1365h544v-1365h-544zM136 68h408v1229h-408v-1229z" />
    <glyph glyph-name="glyph1" horiz-adv-x="0" 
 />
    <glyph glyph-name="glyph2" horiz-adv-x="682" 
 />
    <glyph glyph-name="glyph3" horiz-adv-x="0" 
 />
    <glyph glyph-name="glyph3" horiz-adv-x="0" 
 />
    <glyph glyph-name="uni000D" unicode="&#xd;" horiz-adv-x="512" 
 />
    <glyph glyph-name="space" unicode=" " horiz-adv-x="512" 
 />
    <glyph glyph-name="exclam" unicode="!" horiz-adv-x="512" 
d="M129 391v975h256v-975h-256zM96 135q0 66 47.5 113t112.5 47q67 0 114.5 -47t47.5 -113q0 -67 -47 -114.5t-113 -47.5q-68 0 -115 47.5t-47 114.5z" />
    <glyph glyph-name="quotedbl" unicode="&#x22;" horiz-adv-x="804" 
d="M502 803l-37 563h258l-39 -563h-182zM121 803l-39 563h258l-39 -563h-180z" />
    <glyph glyph-name="numbersign" unicode="#" horiz-adv-x="1116" 
d="M170 6l51 395h-196v191h221l26 209h-198v192h223l47 393l193 -26l-45 -367h215l49 393l192 -26l-47 -367h193v-192h-213l-27 -209h190v-193h-215l-51 -419l-192 26l49 393h-217l-53 -419zM442 592h215l25 209h-215z" />
    <glyph glyph-name="dollar" unicode="$" 
d="M96 246l152 155q69 -94 142.5 -137t164.5 -43q86 0 144.5 52t58.5 128q0 65 -40.5 105t-150.5 86q-192 81 -254 131q-57 44 -87.5 111.5t-30.5 146.5q0 95 46 181.5t124 137.5q67 46 172 62v197h127v-197q97 -11 171 -46.5t144 -107.5l-135 -172q-99 111 -221 111
q-71 0 -121.5 -41.5t-50.5 -99.5q0 -66 77 -119q26 -18 146 -66q170 -69 246 -139q104 -93 104 -256q0 -160 -95 -271t-265 -151v-207h-127v199q-281 12 -441 250z" />
    <glyph glyph-name="percent" unicode="%" horiz-adv-x="1587" 
d="M332 6l813 1405l108 -61l-813 -1407zM406 735q-149 0 -247 93t-98 235q0 136 100 227.5t249 91.5t247.5 -91.5t98.5 -229.5q0 -141 -99 -233.5t-251 -92.5zM410 881q72 0 124 52.5t52 125.5q0 72 -52.5 124t-125.5 52q-72 0 -124.5 -51.5t-52.5 -122.5q0 -75 52.5 -127.5
t126.5 -52.5zM834 307q0 135 99.5 226.5t248.5 91.5q148 0 246 -92t98 -230q0 -140 -98.5 -231.5t-249.5 -91.5t-247.5 92t-96.5 235zM1004 305q0 -75 51.5 -127.5t124.5 -52.5q72 0 124 52.5t52 125.5q0 72 -52 124t-124 52t-124 -51.5t-52 -122.5z" />
    <glyph glyph-name="ampersand" unicode="&#x26;" horiz-adv-x="1454" 
d="M109 360q0 76 24.5 139t72 112.5t101.5 86.5t127 74q-76 84 -107.5 149.5t-31.5 137.5q0 148 105.5 243t269.5 95q158 0 264 -94.5t106 -235.5q0 -97 -60 -178t-189 -156l225 -258q107 107 168 189l157 -154q-35 -47 -66.5 -82t-111.5 -115l277 -313h-330l-135 154
q-118 -97 -222.5 -141t-213.5 -44q-186 0 -308 111t-122 280zM664 874q89 60 122 102t33 95q0 60 -38.5 97.5t-100.5 37.5q-58 0 -96.5 -36.5t-38.5 -92.5q0 -41 20.5 -75.5t98.5 -127.5zM377 393q0 -76 60.5 -132t142.5 -56q57 0 113.5 27t133.5 90l-258 296
q-109 -71 -150.5 -120t-41.5 -105z" />
    <glyph glyph-name="quotesingle" unicode="'" horiz-adv-x="421" 
d="M121 803l-39 563h258l-39 -563h-180z" />
    <glyph glyph-name="parenleft" unicode="(" horiz-adv-x="653" 
d="M211 0q-74 310 -74 621q0 266 53 515t150 433l199 -109q-166 -355 -166 -848q0 -240 44.5 -467t121.5 -385l-199 -108q-49 93 -77.5 169.5t-51.5 178.5z" />
    <glyph glyph-name="parenright" unicode=")" horiz-adv-x="653" 
d="M117 -240q166 355 166 848q0 240 -44.5 467t-121.5 385l198 109q49 -93 77.5 -169.5t51.5 -178.5q74 -310 74 -621q0 -266 -53 -515t-150 -433z" />
    <glyph glyph-name="asterisk" unicode="*" 
d="M461 879l-154 110l189 185l-260 40l59 181l233 -121l-43 260h189l-43 -260l233 121l60 -181l-260 -38l186 -185l-152 -112l-118 235z" />
    <glyph glyph-name="plus" unicode="+" 
d="M498 225v375h-375v164h375v377h164v-377h376v-164h-376v-375h-164z" />
    <glyph glyph-name="comma" unicode="," horiz-adv-x="512" 
d="M8 -268l219 551l228 -27l-289 -543z" />
    <glyph glyph-name="hyphen" unicode="-" horiz-adv-x="460" 
d="M0 367v206h461v-206h-461z" />
    <glyph glyph-name="period" unicode="." horiz-adv-x="512" 
d="M96 135q0 66 47.5 113t112.5 47q67 0 114.5 -47t47.5 -113q0 -67 -47 -114.5t-113 -47.5q-68 0 -115 47.5t-47 114.5z" />
    <glyph glyph-name="slash" unicode="/" horiz-adv-x="952" 
d="M-59 -281l772 1850l172 -68l-774 -1849z" />
    <glyph glyph-name="zero" unicode="0" 
d="M193 174q-142 200 -142 520q0 305 142 498q74 100 175.5 154.5t213.5 54.5t212 -54t175 -155q141 -191 141 -508q0 -315 -141 -510q-70 -98 -173 -153.5t-214 -55.5q-113 0 -215 54.5t-174 154.5zM582 201q114 0 188 135.5t74 347.5q0 210 -74 345.5t-188 135.5
q-115 0 -190 -134.5t-75 -340.5q0 -217 74 -353t191 -136z" />
    <glyph glyph-name="one" unicode="1" 
d="M465 0v1135h-197v231h463v-1366h-266z" />
    <glyph glyph-name="two" unicode="2" 
d="M35 0l403 457q187 212 250.5 313.5t63.5 187.5q0 88 -60.5 147.5t-148.5 59.5q-91 0 -144.5 -59.5t-56.5 -165.5h-285q13 212 143 336.5t337 124.5t344 -125.5t137 -314.5q0 -114 -58.5 -227t-189.5 -251l-238 -252h496v-231h-993z" />
    <glyph glyph-name="three" unicode="3" 
d="M109 197q-31 52 -45 96t-15 100h266q12 -91 72 -141.5t154 -50.5q95 0 157 61t62 154q0 92 -61 154.5t-150 62.5q-11 0 -51 -4v190h37q86 0 137 51.5t51 137.5q0 78 -51.5 129t-132.5 51q-78 0 -125.5 -45.5t-57.5 -132.5h-252q28 192 143 291.5t310 99.5
q188 0 303 -104.5t115 -274.5q0 -103 -36.5 -170t-121.5 -121q50 -20 77 -38.5t50 -47.5q82 -97 82 -246q0 -193 -135 -313.5t-352 -120.5q-142 0 -252 59.5t-178 172.5z" />
    <glyph glyph-name="four" unicode="4" 
d="M43 242v118l676 1031h239v-936h162v-213h-162v-242h-247v242h-668zM358 455h353v542z" />
    <glyph glyph-name="five" unicode="5" 
d="M53 143l88 232q149 -174 342 -174q114 0 194.5 76.5t80.5 185.5q0 115 -90.5 194.5t-221.5 79.5q-137 0 -262 -88h-14l162 717h631v-231h-451l-53 -213q63 8 100 8q200 0 332.5 -135.5t132.5 -339.5q0 -217 -149.5 -353.5t-385.5 -136.5q-258 0 -436 178z" />
    <glyph glyph-name="six" unicode="6" 
d="M61 434q0 200 172 432l416 555l189 -141l-324 -416q86 35 160 35q178 0 301 -130.5t123 -319.5q0 -214 -145 -349t-375 -135q-226 0 -371.5 132t-145.5 337zM328 432q0 -107 73.5 -181.5t180.5 -74.5q103 0 176 74t73 178q0 109 -71.5 183.5t-177.5 74.5
q-105 0 -179.5 -74.5t-74.5 -179.5z" />
    <glyph glyph-name="seven" unicode="7" 
d="M102 88l625 1047h-633v231h1053l-830 -1405z" />
    <glyph glyph-name="eight" unicode="8" 
d="M106 373q0 75 26.5 143.5t76.5 114.5q27 27 56.5 44.5t84.5 39.5q-196 99 -196 301q0 167 123 276t311 109q186 0 305 -109t119 -278q0 -103 -49.5 -175.5t-153.5 -123.5q246 -96 246 -338q0 -180 -132.5 -296t-336.5 -116q-207 0 -343.5 115.5t-136.5 292.5zM584 823
q78 0 133 56.5t55 134.5q0 79 -56 135.5t-134 56.5q-76 0 -132.5 -56.5t-56.5 -133.5q0 -80 56 -136.5t135 -56.5zM373 393q0 -90 61 -153.5t148 -63.5q85 0 145.5 63.5t60.5 151.5q0 89 -60 151t-148 62q-85 0 -146 -62.5t-61 -148.5z" />
    <glyph glyph-name="nine" unicode="9" 
d="M324 86l321 414q-87 -33 -160 -33q-178 0 -301 131t-123 322q0 211 147 346t376 135q224 0 369 -131.5t145 -335.5q0 -98 -45 -210.5t-127 -223.5l-414 -557zM582 680q104 0 176.5 75t72.5 181q0 107 -72.5 180.5t-178.5 73.5q-103 0 -177.5 -74.5t-74.5 -177.5
q0 -107 74 -182.5t180 -75.5z" />
    <glyph glyph-name="colon" unicode=":" horiz-adv-x="512" 
d="M258 596q-68 0 -115 47t-47 115q0 66 47.5 113t112.5 47q67 0 114.5 -47t47.5 -113q0 -67 -47 -114.5t-113 -47.5zM96 135q0 66 47.5 113t112.5 47q67 0 114.5 -47t47.5 -113q0 -67 -47 -114.5t-113 -47.5q-68 0 -115 47.5t-47 114.5z" />
    <glyph glyph-name="semicolon" unicode=";" horiz-adv-x="512" 
d="M322 594q-68 0 -115 47t-47 115q0 66 47 112.5t112 46.5q67 0 114.5 -46.5t47.5 -112.5q0 -67 -46.5 -114.5t-112.5 -47.5zM-4 -268l219 551l227 -27l-288 -543z" />
    <glyph glyph-name="less" unicode="&#x3c;" horiz-adv-x="1024" 
d="M68 573v224l886 450v-262l-606 -301l606 -303v-262z" />
    <glyph glyph-name="equal" unicode="=" 
d="M123 756v164h915v-164h-915zM123 444v164h915v-164h-915z" />
    <glyph glyph-name="greater" unicode="&#x3e;" horiz-adv-x="1024" 
d="M68 119v264l606 301l-606 301v262l886 -452v-224z" />
    <glyph glyph-name="question" unicode="?" horiz-adv-x="1001" 
d="M328 457v360q47 -8 71 -8q112 0 184 58t72 147q0 68 -44.5 112.5t-112.5 44.5q-62 0 -104 -42t-42 -103q0 -15 2 -25h-264q-2 12 -2 27q0 151 122.5 258t295.5 107q172 0 292 -112t120 -273q0 -140 -89 -239.5t-249 -137.5v-174h-252zM297 135q0 66 47.5 113t112.5 47
q67 0 114 -47t47 -113q0 -67 -46.5 -114.5t-112.5 -47.5q-67 0 -114.5 47.5t-47.5 114.5z" />
    <glyph glyph-name="at" unicode="@" horiz-adv-x="1564" 
d="M428 66q-164 94 -259 259t-95 357q0 149 57 281.5t155 227.5t235.5 150.5t291.5 55.5q190 0 345.5 -81.5t244 -223.5t88.5 -316q0 -133 -49.5 -249t-133.5 -184.5t-180 -68.5q-54 0 -95.5 27.5t-61.5 77.5q-100 -109 -234 -109q-146 0 -242 109.5t-96 275.5
q0 172 106.5 287t266.5 115q69 0 129.5 -24t91.5 -62l8 69h173l-56 -465q-6 -49 -6 -94q0 -53 35 -53q46 0 90.5 49t72 128.5t27.5 162.5q0 210 -147 345.5t-375 135.5q-117 0 -221.5 -44t-179.5 -119.5t-118.5 -180t-43.5 -221.5q0 -154 72 -283.5t198 -201.5
q127 -74 312 -74q118 0 207.5 21.5t207.5 80.5l33 17l59 -150q-145 -71 -255 -98t-252 -27q-232 0 -406 97zM748 446q88 0 155.5 76t67.5 174q0 78 -53 130.5t-134 52.5q-83 0 -137.5 -65.5t-54.5 -166.5q0 -88 44 -144.5t112 -56.5z" />
    <glyph glyph-name="A" unicode="A" horiz-adv-x="1372" 
d="M2 0l592 1395h201l573 -1395h-285l-116 289h-559l-123 -289h-283zM494 504h389l-191 491z" />
    <glyph glyph-name="B" unicode="B" horiz-adv-x="1167" 
d="M158 0v1366h338q229 0 333 -82q57 -44 90 -118.5t33 -159.5q0 -119 -51 -195q-14 -22 -34.5 -38.5t-63.5 -43.5q68 -15 106 -33.5t72 -52.5q46 -46 72 -114.5t26 -143.5q0 -81 -32 -154.5t-89 -126.5q-116 -104 -340 -104h-460zM424 797h76q207 0 207 178q0 86 -51.5 131
t-151.5 45h-80v-354zM424 215h115q127 0 186 37q37 22 58.5 63t21.5 88q0 48 -21 88.5t-59 63.5q-35 23 -76 31t-125 8h-100v-379z" />
    <glyph glyph-name="C" unicode="C" horiz-adv-x="1232" 
d="M88 676q0 196 96.5 362t262.5 262.5t362 96.5q165 0 334 -84v-314q-84 82 -161.5 118t-172.5 36q-189 0 -318 -137t-129 -338q0 -199 129.5 -332t323.5 -133q95 0 170.5 34.5t157.5 114.5v-313q-170 -80 -334 -80q-148 0 -281.5 55.5t-230 149.5t-153 225t-56.5 277z" />
    <glyph glyph-name="D" unicode="D" horiz-adv-x="1370" 
d="M158 0v1366h391q297 0 489 -158q115 -94 179.5 -232t64.5 -292q0 -152 -65.5 -290.5t-182.5 -235.5q-99 -83 -215 -120.5t-272 -37.5h-389zM424 231h72q129 0 215 26t149 83q69 61 108.5 153.5t39.5 190.5t-39.5 188t-108.5 152q-66 60 -150.5 85.5t-213.5 25.5h-72v-904
z" />
    <glyph glyph-name="E" unicode="E" horiz-adv-x="1013" 
d="M158 0v1366h755v-231h-489v-304h471v-231h-471v-369h489v-231h-755z" />
    <glyph glyph-name="F" unicode="F" horiz-adv-x="956" 
d="M158 0v1366h723v-231h-457v-304h428v-231h-428v-600h-266z" />
    <glyph glyph-name="G" unicode="G" horiz-adv-x="1560" 
d="M88 676q0 205 93 370t259 258t373 93q191 0 340 -82t246 -240l-234 -125q-125 203 -354 203q-192 0 -320.5 -136.5t-128.5 -340.5q0 -200 127.5 -332.5t319.5 -132.5q146 0 244.5 79.5t113.5 209.5h-321v231h624q-1 -149 -17 -238t-54 -167q-87 -172 -239.5 -264.5
t-354.5 -92.5q-204 0 -368 91t-256.5 253t-92.5 363z" />
    <glyph glyph-name="H" unicode="H" horiz-adv-x="1423" 
d="M158 0v1366h266v-528h577v528h267v-1366h-267v606h-577v-606h-266z" />
    <glyph glyph-name="I" unicode="I" horiz-adv-x="579" 
d="M158 0v1366h266v-1366h-266z" />
    <glyph glyph-name="J" unicode="J" horiz-adv-x="798" 
d="M-55 96l159 195q54 -78 134 -78q41 0 73 22t45 60q19 53 19 192v879h266v-922q0 -141 -29 -232t-92 -151q-105 -94 -256 -94q-181 0 -319 129z" />
    <glyph glyph-name="K" unicode="K" horiz-adv-x="1304" 
d="M158 0v1366h266v-578l502 578h336l-578 -631l608 -735h-350l-485 614l-33 -32v-582h-266z" />
    <glyph glyph-name="L" unicode="L" horiz-adv-x="870" 
d="M158 0v1366h266v-1135h420v-231h-686z" />
    <glyph glyph-name="M" unicode="M" horiz-adv-x="1777" 
d="M84 0l254 1391h182l373 -893l387 893h184l228 -1391h-269l-123 842l-374 -860h-74l-363 860l-137 -842h-268z" />
    <glyph glyph-name="N" unicode="N" horiz-adv-x="1595" 
d="M158 0v1397h184l832 -951v920h266v-1393h-185l-831 951v-924h-266z" />
    <glyph glyph-name="O" unicode="O" horiz-adv-x="1636" 
d="M88 692q0 191 98 353.5t266.5 257t368.5 94.5q201 0 368 -94.5t263 -259t96 -361.5q0 -198 -97 -361.5t-266 -257.5t-374 -94q-151 0 -285.5 55.5t-230.5 151.5t-151.5 230.5t-55.5 285.5zM362 688q0 -198 133.5 -336.5t323.5 -138.5q123 0 228 63t166 171.5t61 236.5
q0 195 -134 332t-323 137q-186 0 -320.5 -137.5t-134.5 -327.5z" />
    <glyph glyph-name="P" unicode="P" horiz-adv-x="1095" 
d="M158 0v1366h399q133 0 214.5 -23.5t146.5 -80.5q66 -60 102.5 -146t36.5 -184q0 -88 -29 -168t-82 -137q-115 -121 -350 -121h-172v-506h-266zM424 737h108q250 0 250 197q0 105 -69 158q-57 43 -197 43h-92v-398z" />
    <glyph glyph-name="Q" unicode="Q" horiz-adv-x="1630" 
d="M88 682q0 148 57 280.5t155 228t234 151t289 55.5q204 0 372 -94t264.5 -258.5t96.5 -364.5q0 -140 -45.5 -255t-146.5 -232l221 -220l-268 -26l-113 125q-173 -103 -377 -103q-154 0 -291.5 55t-235.5 150t-155 227t-57 281zM362 678q0 -198 130.5 -331.5t322.5 -133.5
q62 0 107 12.5t90 42.5l-264 258l276 23l152 -154q106 117 106 287q0 130 -61 238.5t-167 170.5t-233 62q-195 0 -327 -136.5t-132 -338.5z" />
    <glyph glyph-name="R" unicode="R" horiz-adv-x="1177" 
d="M158 0v1366h395q232 0 348 -96q63 -52 99 -134t36 -173q0 -92 -33 -171.5t-90 -129.5q-78 -67 -188 -87l430 -575h-328l-368 549h-35v-549h-266zM424 737h78q126 0 193 54t67 155t-65 153t-191 52h-82v-414z" />
    <glyph glyph-name="S" unicode="S" horiz-adv-x="1089" 
d="M68 227l172 166q46 -88 120 -135t166 -47q91 0 151 54.5t60 137.5q0 86 -73 138q-34 25 -191 82q-184 66 -260 149.5t-76 218.5q0 172 121 285t305 113q227 0 402 -152l-140 -182q-52 58 -104 84t-117 26q-81 0 -136.5 -44t-55.5 -107q0 -56 43 -92t163 -80
q113 -41 170 -69.5t103 -67.5q121 -103 121 -287q0 -201 -131.5 -326t-343.5 -125q-148 0 -262.5 63.5t-206.5 196.5z" />
    <glyph glyph-name="T" unicode="T" horiz-adv-x="907" 
d="M319 0v1135h-305v231h879v-231h-307v-1135h-267z" />
    <glyph glyph-name="U" unicode="U" horiz-adv-x="1411" 
d="M258 166q-100 131 -100 364v836h266v-782q0 -104 8.5 -152t34.5 -92q34 -58 98.5 -92.5t141.5 -34.5q76 0 140.5 34t98.5 93q26 44 34.5 92t8.5 152v782h266v-836q0 -233 -100 -364q-71 -92 -190 -144.5t-258 -52.5q-138 0 -258.5 52.5t-190.5 144.5z" />
    <glyph glyph-name="V" unicode="V" horiz-adv-x="1318" 
d="M582 -35l-580 1401h291l364 -917l369 917h289l-590 -1401h-143z" />
    <glyph glyph-name="W" unicode="W" horiz-adv-x="1998" 
d="M485 -27l-483 1393h281l307 -930l334 942h145l317 -942l328 930h281l-514 -1393h-187l-303 893l-319 -893h-187z" />
    <glyph glyph-name="X" unicode="X" horiz-adv-x="1280" 
d="M14 0l484 723l-408 643h320l241 -424l252 424h320l-420 -643l465 -723h-314l-307 500l-317 -500h-316z" />
    <glyph glyph-name="Y" unicode="Y" horiz-adv-x="1193" 
d="M461 0v627l-471 739h315l295 -475l289 475h317l-479 -739v-627h-266z" />
    <glyph glyph-name="Z" unicode="Z" horiz-adv-x="1196" 
d="M43 0l668 1135h-564v231h1004l-666 -1135h629v-231h-1071z" />
    <glyph glyph-name="bracketleft" unicode="[" horiz-adv-x="710" 
d="M178 -328v1862h424v-219h-184v-1424h184v-219h-424z" />
    <glyph glyph-name="backslash" unicode="\" horiz-adv-x="952" 
d="M840 -348l-772 1849l172 68l772 -1850z" />
    <glyph glyph-name="bracketright" unicode="]" horiz-adv-x="710" 
d="M109 -109h186v1424h-186v219h426v-1862h-426v219z" />
    <glyph glyph-name="asciicircum" unicode="^" horiz-adv-x="1024" 
d="M10 684l328 690h350l328 -690h-279l-223 477l-225 -477h-279z" />
    <glyph glyph-name="underscore" unicode="_" horiz-adv-x="1024" 
d="M0 -94h1024v-240h-1024v240z" />
    <glyph glyph-name="grave" unicode="`" horiz-adv-x="1024" 
d="M498 1042l-308 277l181 115l245 -310z" />
    <glyph glyph-name="a" unicode="a" horiz-adv-x="1165" 
d="M72 444q0 200 124.5 335.5t307.5 135.5q89 0 160 -34t135 -109v115h248v-887h-248v115q-60 -75 -129.5 -109.5t-161.5 -34.5q-186 0 -311 136t-125 337zM328 444q0 -103 73.5 -176t176.5 -73q101 0 174 72.5t73 172.5q0 106 -72 179t-175 73t-176.5 -72.5t-73.5 -175.5z
" />
    <glyph glyph-name="b" unicode="b" horiz-adv-x="1165" 
d="M119 0v1534h248v-762q66 75 136 109t159 34q183 0 307.5 -135.5t124.5 -333.5q0 -202 -125.5 -338.5t-311.5 -136.5q-92 0 -161 34.5t-129 109.5v-115h-248zM340 444q0 -103 73.5 -176t176.5 -73q101 0 174.5 72.5t73.5 172.5q0 105 -72.5 178.5t-175.5 73.5
t-176.5 -72.5t-73.5 -175.5z" />
    <glyph glyph-name="c" unicode="c" horiz-adv-x="854" 
d="M72 438q0 203 140 340t347 137q122 0 225 -53v-246q-54 41 -99.5 58.5t-100.5 17.5q-110 0 -183 -71.5t-73 -178.5t73 -177t183 -70q57 0 103 16.5t97 56.5v-241q-115 -56 -229 -56q-134 0 -245 61.5t-174.5 169t-63.5 236.5z" />
    <glyph glyph-name="d" unicode="d" horiz-adv-x="1165" 
d="M72 444q0 200 124.5 335.5t307.5 135.5q89 0 160 -34t135 -109v762h248v-1534h-248v115q-60 -75 -129.5 -109.5t-161.5 -34.5q-186 0 -311 136t-125 337zM328 444q0 -103 73.5 -176t176.5 -73q101 0 174 72.5t73 172.5q0 106 -72 179t-175 73t-176.5 -72.5t-73.5 -175.5z
" />
    <glyph glyph-name="e" unicode="e" horiz-adv-x="1060" 
d="M72 442q0 215 126.5 344t338.5 129q211 0 332.5 -128t121.5 -351v-33h-665q4 -115 60 -176t157 -61q70 0 119 28t92 91l229 -37q-56 -135 -166.5 -206t-267.5 -71q-217 0 -347 128.5t-130 342.5zM334 561h420q-20 86 -74 131t-137 45q-82 0 -137 -46.5t-72 -129.5z" />
    <glyph glyph-name="f" unicode="f" horiz-adv-x="600" 
d="M127 0v672h-96v215h96v284q0 97 18.5 158.5t63.5 112.5q51 56 120 86.5t142 30.5q65 0 131 -31v-225q-68 32 -113 32q-32 0 -58 -17t-38 -46q-18 -46 -18 -137v-248h227v-215h-227v-672h-248z" />
    <glyph glyph-name="g" unicode="g" 
d="M94 -104h271q38 -160 208 -160q101 0 166 65q56 56 56 185v133q-69 -80 -138.5 -114t-162.5 -34q-183 0 -302.5 130t-119.5 331q0 209 123 346t311 137q92 0 159 -33t130 -110v115h247v-854q0 -136 -21.5 -210t-78.5 -142q-135 -156 -373 -156q-269 0 -407 194
q-32 46 -47 84.5t-21 92.5zM328 444q0 -103 73.5 -176t176.5 -73q101 0 174 72.5t73 172.5q0 106 -72 179t-175 73t-176.5 -73.5t-73.5 -174.5z" />
    <glyph glyph-name="h" unicode="h" horiz-adv-x="1091" 
d="M119 0v1534h248v-762q59 77 123 110t155 33q79 0 146.5 -28t111.5 -80q39 -46 54.5 -101.5t15.5 -148.5v-557h-248v485q0 105 -25 148q-19 33 -57.5 52.5t-87.5 19.5q-95 0 -141.5 -61.5t-46.5 -188.5v-455h-248z" />
    <glyph glyph-name="i" unicode="i" horiz-adv-x="477" 
d="M240 1112q-62 0 -106 44.5t-44 107.5q0 60 44.5 103.5t105.5 43.5q62 0 105.5 -43.5t43.5 -105.5t-44 -106t-105 -44zM115 0v887h247v-887h-247z" />
    <glyph glyph-name="j" unicode="j" horiz-adv-x="477" 
d="M240 1112q-62 0 -106 44.5t-44 107.5q0 60 44.5 103.5t105.5 43.5q62 0 105.5 -43.5t43.5 -105.5t-44 -106t-105 -44zM115 -473v1360h247v-1360h-247z" />
    <glyph glyph-name="k" unicode="k" horiz-adv-x="1058" 
d="M119 0v1534h248v-971l331 324h336l-416 -389l449 -498h-342l-332 381l-26 -27v-354h-248z" />
    <glyph glyph-name="l" unicode="l" horiz-adv-x="485" 
d="M119 0v1534h248v-1534h-248z" />
    <glyph glyph-name="m" unicode="m" horiz-adv-x="1617" 
d="M119 0v887h248v-103q62 69 125.5 100t144.5 31q93 0 159 -38.5t117 -122.5q103 161 291 161q79 0 146 -34t102 -93q47 -75 47 -215v-573h-248v485q0 96 -20 142q-17 37 -50.5 57.5t-74.5 20.5q-47 0 -86 -24t-59 -65q-27 -58 -27 -161v-455h-248v471q0 105 -18 147
q-15 38 -52.5 62.5t-80.5 24.5q-42 0 -81.5 -22.5t-58.5 -57.5q-28 -52 -28 -170v-455h-248z" />
    <glyph glyph-name="n" unicode="n" horiz-adv-x="1091" 
d="M119 0v887h248v-111q58 75 122.5 107t155.5 32q78 0 146 -27.5t112 -78.5q38 -44 54 -99.5t16 -146.5v-563h-248v492q0 100 -25 143q-19 32 -57.5 51t-87.5 19q-96 0 -142 -60t-46 -186v-459h-248z" />
    <glyph glyph-name="o" unicode="o" horiz-adv-x="1157" 
d="M72 451q0 203 143.5 333.5t366.5 130.5q222 0 362.5 -132t140.5 -339q0 -211 -142.5 -342t-369.5 -131q-223 0 -362 133t-139 347zM328 446q0 -105 73.5 -178t178.5 -73q103 0 176 72t73 175q0 104 -73.5 177t-177.5 73q-101 0 -175.5 -73t-74.5 -173z" />
    <glyph glyph-name="p" unicode="p" horiz-adv-x="1165" 
d="M367 115v-588h-248v1360h248v-115q60 75 129 109t161 34q186 0 311.5 -135.5t125.5 -337.5q0 -200 -124.5 -335.5t-307.5 -135.5q-89 0 -159 34.5t-136 109.5zM340 444q0 -103 73.5 -176t176.5 -73q101 0 174.5 72.5t73.5 172.5q0 105 -72.5 178.5t-175.5 73.5
t-176.5 -72.5t-73.5 -175.5z" />
    <glyph glyph-name="q" unicode="q" horiz-adv-x="1165" 
d="M72 442q0 203 124.5 338t311.5 135q92 0 161.5 -34t129.5 -109v115h248v-1360h-248v588q-65 -75 -135.5 -109.5t-159.5 -34.5q-183 0 -307.5 135.5t-124.5 335.5zM328 444q0 -103 73.5 -176t176.5 -73q101 0 174 72.5t73 172.5q0 106 -72 179t-175 73t-176.5 -72.5
t-73.5 -175.5z" />
    <glyph glyph-name="r" unicode="r" horiz-adv-x="737" 
d="M119 0v887h248v-135q91 163 258 163q53 0 108 -22l-35 -231q-33 18 -56.5 24t-61.5 6q-101 0 -158 -63q-30 -35 -42.5 -81t-12.5 -122v-426h-248z" />
    <glyph glyph-name="s" unicode="s" horiz-adv-x="829" 
d="M63 119l130 151q104 -104 210 -104q47 0 80 28.5t33 69.5q0 38 -26 59t-111 52q-90 34 -116 45.5t-54 32.5q-88 61 -88 184q0 125 89 204t228 79q159 0 289 -95l-123 -145q-77 57 -147 57q-41 0 -69 -21.5t-28 -53.5q0 -29 29 -49.5t113 -49.5q117 -41 172 -80
q98 -70 98 -194q0 -139 -105 -228.5t-268 -89.5q-96 0 -183.5 38.5t-152.5 109.5z" />
    <glyph glyph-name="t" unicode="t" horiz-adv-x="552" 
d="M121 0v672h-98v215h98v303h248v-303h176v-215h-176v-672h-248z" />
    <glyph glyph-name="u" unicode="u" horiz-adv-x="1095" 
d="M119 344v543h248v-502q0 -203 182 -203q180 0 180 203v502h248v-543q0 -180 -111 -276.5t-317 -96.5q-207 0 -318.5 96.5t-111.5 276.5z" />
    <glyph glyph-name="v" unicode="v" horiz-adv-x="1028" 
d="M455 -18l-453 905h279l233 -502l231 502h279l-457 -905h-112z" />
    <glyph glyph-name="w" unicode="w" horiz-adv-x="1622" 
d="M457 -18l-455 905h279l233 -512l242 536h106l242 -544l237 520h277l-459 -905h-112l-240 538l-236 -538h-114z" />
    <glyph glyph-name="x" unicode="x" horiz-adv-x="1150" 
d="M2 0l422 481l-342 406h313l185 -230l186 230h315l-348 -406l416 -481h-318l-253 309l-256 -309h-320z" />
    <glyph glyph-name="y" unicode="y" horiz-adv-x="1095" 
d="M422 135l-420 752h289l266 -504l252 504h285l-717 -1360h-281z" />
    <glyph glyph-name="z" unicode="z" horiz-adv-x="993" 
d="M27 0l503 676h-426v215h863l-502 -676h469v-215h-907z" />
    <glyph glyph-name="braceleft" unicode="{" horiz-adv-x="647" 
d="M172 -53v432q0 46 -31.5 81.5t-83.5 47.5v201q62 14 88.5 52t26.5 113v381q0 160 58 227.5t194 67.5h131v-213h-25q-40 0 -60.5 -4t-37.5 -20t-23 -48.5t-6 -88.5v-332q0 -100 -25 -150.5t-97 -93.5q122 -72 122 -192v-381q0 -56 6 -88.5t23 -49t37.5 -20.5t60.5 -4h25
v-213h-131q-136 0 -194 67.5t-58 227.5z" />
    <glyph glyph-name="bar" unicode="|" horiz-adv-x="1024" 
d="M379 -342v1708h266v-1708h-266z" />
    <glyph glyph-name="braceright" unicode="}" horiz-adv-x="647" 
d="M92 -135h25q40 0 60.5 4t37.5 20.5t23 49t6 88.5v381q0 120 123 192q-72 43 -97.5 93.5t-25.5 150.5v332q0 56 -6 88.5t-23 48.5t-37.5 20t-60.5 4h-25v213h131q136 0 194 -67.5t58 -227.5v-381q0 -75 26.5 -113t88.5 -52v-201q-52 -12 -83.5 -47.5t-31.5 -81.5v-432
q0 -160 -58 -227.5t-194 -67.5h-131v213z" />
    <glyph glyph-name="asciitilde" unicode="~" horiz-adv-x="1366" 
d="M330 1147l-146 96l17 35q63 145 127.5 197.5t167.5 52.5q65 0 211 -53q97 -36 122 -43t56 -7q49 0 79 22.5t66 84.5l152 -88q-46 -96 -77.5 -141t-74.5 -76q-79 -58 -174 -58q-31 0 -72.5 11.5t-138.5 46.5q-81 29 -111 37t-55 8q-49 0 -77.5 -21.5t-71.5 -103.5z" />
    <glyph glyph-name="uni00A0" unicode="&#xa0;" horiz-adv-x="512" 
 />
    <glyph glyph-name="exclamdown" unicode="&#xa1;" horiz-adv-x="512" 
d="M258 743q-67 0 -114.5 48t-47.5 116q0 64 47.5 111t112.5 47q67 0 114.5 -47t47.5 -113t-47 -114t-113 -48zM129 -328v973h256v-973h-256z" />
    <glyph glyph-name="cent" unicode="&#xa2;" 
d="M616 51v168q-185 23 -301 152.5t-116 312.5q0 127 58.5 232.5t164.5 170.5q77 47 194 66v156h129v-162q88 -8 162 -41v-254q-53 51 -94.5 70.5t-99.5 19.5q-107 0 -177.5 -74t-70.5 -186q0 -109 70 -181.5t174 -72.5q118 0 198 92v-256q-86 -33 -162 -41v-172h-129z" />
    <glyph glyph-name="sterling" unicode="&#xa3;" 
d="M37 16q53 134 123.5 197.5t173.5 69.5q22 57 22 108q0 40 -14 92h-242v187h131q-79 143 -79 276q0 123 64 226t181 164t262 61q214 0 333.5 -124t123.5 -351l-268 -29q6 49 6 59q0 91 -60.5 150t-152.5 59q-95 0 -158 -65.5t-63 -163.5q0 -54 15.5 -103.5t58.5 -136.5
l10 -22h305v-187h-246q6 -55 6 -77q0 -70 -24 -140l139 -45q110 -37 158 -37q86 0 123 109l180 -39q-43 -151 -117 -218t-197 -67q-45 0 -92.5 10.5t-146.5 43.5q-161 51 -223 51q-101 0 -140 -92z" />
    <glyph glyph-name="currency" unicode="&#xa4;" horiz-adv-x="1366" 
d="M184 137l-143 144l211 211q-90 130 -90 282q0 147 90 281l-213 213l145 145l213 -213q137 90 287 90q145 0 281 -88l211 209l143 -143l-209 -209q50 -80 71 -146t21 -141q0 -140 -88 -278l211 -211l-143 -146l-211 211q-134 -92 -291 -92q-139 0 -285 90zM682 494
q116 0 197.5 81.5t81.5 198.5q0 114 -81.5 196.5t-193.5 82.5q-119 0 -201 -81.5t-82 -199.5q0 -115 81.5 -196.5t197.5 -81.5z" />
    <glyph glyph-name="yen" unicode="&#xa5;" 
d="M123 428v186h330l-70 129h-260v187h149l-258 436h293l273 -475l270 475h295l-262 -436h153v-187h-266l-72 -129h338v-186h-338v-428h-245v428h-330z" />
    <glyph glyph-name="brokenbar" unicode="&#xa6;" horiz-adv-x="1024" 
d="M379 655v711h266v-711h-266zM379 313h266v-655h-266v655z" />
    <glyph glyph-name="section" unicode="&#xa7;" 
d="M178 41h252q2 -83 41.5 -130.5t108.5 -47.5q62 0 104.5 43.5t42.5 107.5q0 75 -59 121q-41 29 -160 72q-112 38 -165.5 66t-94.5 71q-98 98 -98 260q0 129 62 219t171 119q-182 80 -182 277q0 149 102 240t268 91q117 0 212 -45t139 -123q41 -71 47 -200h-248
q-6 80 -43 123t-100 43q-57 0 -97.5 -40t-40.5 -96q0 -55 42 -89.5t175 -92.5q120 -52 171.5 -81.5t91.5 -71.5q92 -95 92 -238q0 -238 -240 -352q186 -85 186 -277q0 -154 -111 -256t-278 -102q-107 0 -192.5 43t-136.5 121q-32 49 -45.5 98t-16.5 127zM578 434
q71 0 121.5 52.5t50.5 125.5q0 72 -50 125.5t-118 53.5q-73 0 -123.5 -52.5t-50.5 -126.5q0 -73 50.5 -125.5t119.5 -52.5z" />
    <glyph glyph-name="dieresis" unicode="&#xa8;" horiz-adv-x="1024" 
d="M723 1053q-61 0 -104.5 43.5t-43.5 105.5q0 59 44 102.5t104 43.5q61 0 104 -43t43 -105q0 -60 -43.5 -103.5t-103.5 -43.5zM299 1053q-61 0 -104 43.5t-43 105.5q0 59 43.5 102.5t103.5 43.5q61 0 104 -43t43 -105q0 -60 -43.5 -103.5t-103.5 -43.5z" />
    <glyph glyph-name="copyright" unicode="&#xa9;" horiz-adv-x="1556" 
d="M68 682q0 147 56.5 279.5t152 228t229 151.5t282.5 56q112 0 218.5 -36.5t192.5 -103t151.5 -154.5t101 -197t35.5 -224q0 -116 -36 -224.5t-101.5 -196.5t-152.5 -154t-195.5 -102t-223.5 -36q-144 0 -275.5 57t-226.5 152.5t-151.5 227.5t-56.5 276zM209 682
q0 -158 76.5 -293t207.5 -214t285 -79q153 0 283 78.5t206 213.5t76 294q0 157 -75.5 292t-204 214.5t-277.5 79.5q-159 0 -292 -77.5t-209 -212t-76 -296.5zM371 678q0 180 133 306t323 126q106 0 220 -53v-223q-59 59 -109 83.5t-113 24.5q-109 0 -183.5 -76t-74.5 -188
q0 -109 75 -182.5t187 -73.5q126 0 218 106v-223q-119 -51 -222 -51q-191 0 -322.5 123t-131.5 301z" />
    <glyph glyph-name="ordfeminine" unicode="&#xaa;" horiz-adv-x="694" 
d="M303 801q-110 0 -185 81.5t-75 202.5q0 118 74.5 199.5t183.5 81.5q102 0 176 -86v70h148v-531h-148v70q-68 -88 -174 -88zM344 934q60 0 104 43.5t44 103.5q0 63 -43.5 107.5t-104.5 44.5q-60 0 -103.5 -44.5t-43.5 -105.5t43.5 -105t103.5 -44zM63 629v112h560v-112
h-560z" />
    <glyph glyph-name="guillemotleft" unicode="&#xab;" horiz-adv-x="1050" 
d="M483 444l320 439l143 -101l-248 -338l250 -329l-145 -105zM401 10l-319 434l319 439l144 -101l-248 -338l250 -329z" />
    <glyph glyph-name="logicalnot" unicode="&#xac;" horiz-adv-x="1024" 
d="M68 307v240h886v-547h-266v307h-620z" />
    <glyph glyph-name="uni00AD" unicode="&#xad;" horiz-adv-x="460" 
d="M0 367v206h461v-206h-461z" />
    <glyph glyph-name="registered" unicode="&#xae;" horiz-adv-x="1556" 
d="M68 682q0 147 56.5 279.5t152 228t229 151.5t282.5 56q112 0 218.5 -36.5t192.5 -103t151.5 -154.5t101 -197t35.5 -224q0 -116 -36 -224.5t-101.5 -196.5t-152.5 -154t-195.5 -102t-223.5 -36q-144 0 -275.5 57t-226.5 152.5t-151.5 227.5t-56.5 276zM209 682
q0 -158 76.5 -293t207.5 -214t285 -79q153 0 283 78.5t206 213.5t76 294q0 157 -75.5 292t-204 214.5t-277.5 79.5q-159 0 -292 -77.5t-209 -212t-76 -296.5zM481 272v820h260q149 0 231.5 -65t82.5 -183q0 -89 -47.5 -150t-135.5 -84l271 -338h-240l-229 318v-318h-193z
M674 727h35q149 0 149 107q0 106 -147 106h-37v-213z" />
    <glyph glyph-name="macron" unicode="&#xaf;" horiz-adv-x="1024" 
d="M184 1128v164h656v-164h-656z" />
    <glyph glyph-name="degree" unicode="&#xb0;" 
d="M582 848q-115 0 -195 80t-80 196q0 109 81.5 189t191.5 80q114 0 194 -79.5t80 -193.5q0 -112 -80 -192t-192 -80zM582 985q56 0 95.5 39.5t39.5 95.5t-40 95.5t-97 39.5q-55 0 -95.5 -39.5t-40.5 -93.5q0 -57 40.5 -97t97.5 -40z" />
    <glyph glyph-name="plusminus" unicode="&#xb1;" 
d="M498 240v360h-375v164h375v377h164v-377h376v-164h-376v-360h-164zM123 -41v164h915v-164h-915z" />
    <glyph glyph-name="uni00B2" unicode="&#xb2;" horiz-adv-x="792" 
d="M57 547l248 280q97 109 138.5 177t41.5 118q0 49 -34.5 85t-81.5 36t-78 -36t-31 -91v-14h-182q9 135 87 213t204 78q124 0 207 -77.5t83 -193.5q0 -70 -34.5 -137t-112.5 -151l-129 -138h283v-149h-609z" />
    <glyph glyph-name="uni00B3" unicode="&#xb3;" horiz-adv-x="792" 
d="M373 520q-126 0 -209.5 75t-89.5 193h172q6 -57 39.5 -87.5t89.5 -30.5q54 0 89.5 35t35.5 88t-35 89t-86 33l-39 -2v129q10 -2 29 -2q47 0 75.5 28t28.5 75q0 43 -29 71.5t-73 28.5q-88 0 -103 -102h-162q35 248 275 248q114 0 184 -64.5t70 -167.5q0 -112 -86 -174
q55 -25 86 -78.5t31 -122.5q0 -115 -82 -188.5t-211 -73.5z" />
    <glyph glyph-name="acute" unicode="&#xb4;" horiz-adv-x="1024" 
d="M528 1042l-118 82l243 310l183 -115z" />
    <glyph glyph-name="mu" unicode="&#xb5;" horiz-adv-x="1095" 
d="M346 10l21 -483h-248v1360h248v-506q0 -97 46.5 -148t135.5 -51q180 0 180 203v502h248v-545q0 -167 -94 -258q-116 -113 -326 -113q-114 0 -211 39z" />
    <glyph glyph-name="paragraph" unicode="&#xb6;" 
d="M342 -188v880h-23q-137 0 -221 91t-84 239q0 173 101.5 258.5t310.5 85.5h686v-231h-149v-1323h-226v1323h-170v-1323h-225z" />
    <glyph glyph-name="periodcentered" unicode="&#xb7;" horiz-adv-x="512" 
d="M258 297q-68 0 -115 47.5t-47 114.5q0 66 47.5 112.5t112.5 46.5q67 0 114.5 -46.5t47.5 -112.5q0 -67 -47 -114.5t-113 -47.5z" />
    <glyph glyph-name="cedilla" unicode="&#xb8;" horiz-adv-x="1024" 
d="M358 -365l201 273l160 -88l-236 -256z" />
    <glyph glyph-name="uni00B9" unicode="&#xb9;" horiz-adv-x="792" 
d="M317 547v670h-118v149h290v-819h-172z" />
    <glyph glyph-name="ordmasculine" unicode="&#xba;" horiz-adv-x="690" 
d="M342 801q-132 0 -215.5 80t-83.5 209q0 121 85.5 199.5t217.5 78.5q133 0 217 -79t84 -204q0 -126 -85 -205t-220 -79zM346 936q60 0 104 44t44 105t-44 104.5t-106 43.5q-60 0 -103.5 -44t-43.5 -104q0 -62 43 -105.5t106 -43.5zM74 629v112h561v-112h-561z" />
    <glyph glyph-name="guillemotright" unicode="&#xbb;" horiz-adv-x="1050" 
d="M504 115l250 329l-248 338l143 101l320 -439l-320 -434zM102 115l252 329l-250 338l144 101l319 -439l-319 -434z" />
    <glyph glyph-name="onequarter" unicode="&#xbc;" horiz-adv-x="1861" 
d="M459 6l813 1405l108 -61l-813 -1407zM307 547v670h-119v149h291v-819h-172zM1139 141v76l405 617h152v-551h96v-142h-96v-141h-160v141h-397zM1348 283h188v290z" />
    <glyph glyph-name="onehalf" unicode="&#xbd;" horiz-adv-x="1826" 
d="M459 6l813 1405l108 -61l-813 -1407zM307 547v670h-119v149h291v-819h-172zM1106 0l248 281q96 108 138 176.5t42 115.5q0 49 -35 85t-82 36t-77.5 -35t-30.5 -90v-14h-183q9 134 87 211.5t204 77.5q125 0 208 -77t83 -192q0 -70 -34.5 -137t-112.5 -151l-129 -137h282
v-150h-608z" />
    <glyph glyph-name="threequarters" unicode="&#xbe;" horiz-adv-x="1855" 
d="M453 6l813 1405l108 -61l-813 -1407zM360 520q-126 0 -209.5 75t-89.5 193h172q6 -57 39.5 -87.5t89.5 -30.5q54 0 89.5 35t35.5 88t-34.5 89t-85.5 33l-39 -2v129q10 -2 28 -2q47 0 76 28t29 75q0 43 -29.5 71.5t-73.5 28.5q-87 0 -102 -102h-162q35 248 275 248
q114 0 184 -64.5t70 -167.5q0 -112 -86 -174q55 -25 85.5 -78t30.5 -123q0 -115 -82 -188.5t-211 -73.5zM1133 141v76l405 617h152v-551h96v-142h-96v-141h-160v141h-397zM1341 283h189v290z" />
    <glyph glyph-name="questiondown" unicode="&#xbf;" horiz-adv-x="1001" 
d="M545 743q-67 0 -114.5 47t-47.5 113q0 67 47 114.5t113 47.5q67 0 114.5 -47.5t47.5 -114.5q0 -66 -47.5 -113t-112.5 -47zM82 31q0 140 89 239.5t249 137.5v174h252v-361q-47 8 -72 8q-112 0 -184 -57.5t-72 -146.5q0 -67 45 -112.5t113 -45.5q62 0 103.5 41.5
t41.5 103.5q0 15 -2 25h264q2 -12 2 -27q0 -151 -122 -257.5t-295 -106.5q-172 0 -292 112t-120 273z" />
    <glyph glyph-name="Agrave" unicode="&#xc0;" horiz-adv-x="1372" 
d="M707 1491l-342 233l170 140l280 -273zM2 0l592 1395h201l573 -1395h-285l-116 289h-559l-123 -289h-283zM494 504h389l-191 491z" />
    <glyph glyph-name="Aacute" unicode="&#xc1;" horiz-adv-x="1372" 
d="M698 1491l-108 100l280 273l170 -140zM2 0l592 1395h201l573 -1395h-285l-116 289h-559l-123 -289h-283zM494 504h389l-191 491z" />
    <glyph glyph-name="Acircumflex" unicode="&#xc2;" horiz-adv-x="1372" 
d="M479 1491l-123 123l346 282l353 -282l-127 -123l-226 184zM2 0l592 1395h201l573 -1395h-285l-116 289h-559l-123 -289h-283zM494 504h389l-191 491z" />
    <glyph glyph-name="Atilde" unicode="&#xc3;" horiz-adv-x="1372" 
d="M348 1520q17 120 75.5 189t143.5 69q55 0 164 -41q72 -27 89.5 -32t39.5 -5q29 0 47 15t43 61h142q-25 -123 -88 -191.5t-154 -68.5q-29 0 -56.5 7.5t-86.5 30.5q-97 39 -136 39q-30 0 -49.5 -17t-34.5 -56h-139zM2 0l592 1395h201l573 -1395h-285l-116 289h-559
l-123 -289h-283zM494 504h389l-191 491z" />
    <glyph glyph-name="Adieresis" unicode="&#xc4;" horiz-adv-x="1372" 
d="M915 1516q-61 0 -104 43.5t-43 105.5q0 59 43.5 102t103.5 43q62 0 105 -43t43 -104q0 -60 -43.5 -103.5t-104.5 -43.5zM483 1516q-61 0 -104 43.5t-43 105.5q0 59 43.5 102t103.5 43q62 0 105 -43t43 -104q0 -60 -43.5 -103.5t-104.5 -43.5zM2 0l592 1395h201l573 -1395
h-285l-116 289h-559l-123 -289h-283zM494 504h389l-191 491z" />
    <glyph glyph-name="Aring" unicode="&#xc5;" horiz-adv-x="1372" 
d="M692 1499q-81 0 -137.5 57.5t-56.5 139.5q0 77 57 133.5t135 56.5q82 0 138.5 -56t56.5 -136t-57 -137.5t-136 -57.5zM692 1616q31 0 53.5 23t22.5 55q0 31 -22.5 53t-53.5 22q-32 0 -55 -22t-23 -53q0 -32 23 -55t55 -23zM2 0l592 1395h201l573 -1395h-285l-116 289
h-559l-123 -289h-283zM494 504h389l-191 491z" />
    <glyph glyph-name="AE" unicode="&#xc6;" horiz-adv-x="1884" 
d="M14 0l588 1366h721l90 -231h-502l123 -306h496l92 -231h-496l152 -367h504l88 -231h-780l-117 289h-557l-119 -289h-283zM504 504h387l-189 465z" />
    <glyph glyph-name="Ccedilla" unicode="&#xc7;" horiz-adv-x="1232" 
d="M88 674q0 196 96 361.5t262.5 261.5t364.5 96q165 0 332 -80v-314q-144 150 -334 150q-189 0 -318 -136t-129 -337q0 -195 129 -329t316 -134t336 149v-313q-108 -45 -182.5 -62.5t-155.5 -17.5q-195 0 -360 94t-261 256.5t-96 354.5zM528 -371l207 285l172 -104
l-248 -263z" />
    <glyph glyph-name="Egrave" unicode="&#xc8;" horiz-adv-x="1013" 
d="M569 1491l-342 233l170 140l281 -273zM158 0v1366h755v-231h-489v-304h471v-231h-471v-369h489v-231h-755z" />
    <glyph glyph-name="Eacute" unicode="&#xc9;" horiz-adv-x="1013" 
d="M541 1491l-109 100l281 273l170 -140zM158 0v1366h755v-231h-489v-304h471v-231h-471v-369h489v-231h-755z" />
    <glyph glyph-name="Ecircumflex" unicode="&#xca;" horiz-adv-x="1013" 
d="M315 1491l-122 123l346 282l352 -282l-127 -123l-225 184zM158 0v1366h755v-231h-489v-304h471v-231h-471v-369h489v-231h-755z" />
    <glyph glyph-name="Edieresis" unicode="&#xcb;" horiz-adv-x="1013" 
d="M752 1516q-61 0 -104.5 43.5t-43.5 105.5q0 59 44 102t104 43q62 0 104.5 -43t42.5 -104q0 -60 -43 -103.5t-104 -43.5zM319 1516q-61 0 -104 43.5t-43 105.5q0 59 43.5 102t103.5 43q62 0 105 -43t43 -104q0 -60 -43.5 -103.5t-104.5 -43.5zM158 0v1366h755v-231h-489
v-304h471v-231h-471v-369h489v-231h-755z" />
    <glyph glyph-name="Igrave" unicode="&#xcc;" horiz-adv-x="579" 
d="M303 1491l-342 233l170 140l281 -273zM156 0v1366h266v-1366h-266z" />
    <glyph glyph-name="Iacute" unicode="&#xcd;" horiz-adv-x="579" 
d="M291 1491l-109 100l281 273l170 -140zM158 0v1366h266v-1366h-266z" />
    <glyph glyph-name="Icircumflex" unicode="&#xce;" horiz-adv-x="579" 
d="M98 1491l-123 123l320 282l323 -282l-126 -123l-197 184zM158 0v1366h266v-1366h-266z" />
    <glyph glyph-name="Idieresis" unicode="&#xcf;" horiz-adv-x="579" 
d="M477 1516q-61 0 -104 43.5t-43 105.5q0 59 43.5 102t103.5 43q62 0 105 -43t43 -104q0 -60 -43.5 -103.5t-104.5 -43.5zM115 1516q-61 0 -104.5 43.5t-43.5 105.5q0 59 44 102t104 43q61 0 104 -43t43 -104q0 -60 -43 -103.5t-104 -43.5zM156 0v1366h266v-1366h-266z" />
    <glyph glyph-name="Eth" unicode="&#xd0;" horiz-adv-x="1370" 
d="M158 0v580h-115v204h115v582h391q297 0 489 -158q115 -93 179.5 -232t64.5 -292t-65.5 -291t-182.5 -235q-99 -83 -215 -120.5t-272 -37.5h-389zM424 231h72q129 0 215 26t149 83q69 62 108.5 153t39.5 189q0 99 -39.5 189.5t-108.5 152.5q-66 60 -149.5 85.5
t-214.5 25.5h-72v-351h291v-204h-291v-349z" />
    <glyph glyph-name="Ntilde" unicode="&#xd1;" horiz-adv-x="1595" 
d="M481 1520q17 120 75.5 189t143.5 69q55 0 164 -41q72 -27 89.5 -32t39.5 -5q29 0 47 15t43 61h142q-25 -123 -88 -191.5t-154 -68.5q-29 0 -56.5 7.5t-86.5 30.5q-97 39 -135 39q-30 0 -49.5 -17t-34.5 -56h-140zM158 0v1397h184l832 -951v920h266v-1393h-185l-831 951
v-924h-266z" />
    <glyph glyph-name="Ograve" unicode="&#xd2;" horiz-adv-x="1636" 
d="M831 1491l-342 233l170 140l281 -273zM88 692q0 191 98 353.5t266.5 257t368.5 94.5q201 0 368 -94.5t263 -259t96 -361.5q0 -198 -97 -361.5t-266 -257.5t-374 -94q-151 0 -285.5 55.5t-230.5 151.5t-151.5 230.5t-55.5 285.5zM362 688q0 -198 133.5 -336.5
t323.5 -138.5q123 0 228 63t166 171.5t61 236.5q0 195 -134 332t-323 137q-186 0 -320.5 -137.5t-134.5 -327.5z" />
    <glyph glyph-name="Oacute" unicode="&#xd3;" horiz-adv-x="1636" 
d="M823 1491l-108 100l280 273l170 -140zM88 692q0 191 98 353.5t266.5 257t368.5 94.5q201 0 368 -94.5t263 -259t96 -361.5q0 -198 -97 -361.5t-266 -257.5t-374 -94q-151 0 -285.5 55.5t-230.5 151.5t-151.5 230.5t-55.5 285.5zM362 688q0 -198 133.5 -336.5
t323.5 -138.5q123 0 228 63t166 171.5t61 236.5q0 195 -134 332t-323 137q-186 0 -320.5 -137.5t-134.5 -327.5z" />
    <glyph glyph-name="Ocircumflex" unicode="&#xd4;" horiz-adv-x="1636" 
d="M606 1491l-123 123l346 282l353 -282l-127 -123l-226 184zM88 692q0 191 98 353.5t266.5 257t368.5 94.5q201 0 368 -94.5t263 -259t96 -361.5q0 -198 -97 -361.5t-266 -257.5t-374 -94q-151 0 -285.5 55.5t-230.5 151.5t-151.5 230.5t-55.5 285.5zM362 688
q0 -198 133.5 -336.5t323.5 -138.5q123 0 228 63t166 171.5t61 236.5q0 195 -134 332t-323 137q-186 0 -320.5 -137.5t-134.5 -327.5z" />
    <glyph glyph-name="Otilde" unicode="&#xd5;" horiz-adv-x="1636" 
d="M481 1520q17 120 75.5 189t143.5 69q55 0 164 -41q72 -27 89.5 -32t39.5 -5q29 0 47 15t43 61h142q-25 -123 -88 -191.5t-154 -68.5q-29 0 -56.5 7.5t-86.5 30.5q-97 39 -135 39q-30 0 -49.5 -17t-34.5 -56h-140zM88 692q0 191 98 353.5t266.5 257t368.5 94.5
q201 0 368 -94.5t263 -259t96 -361.5q0 -198 -97 -361.5t-266 -257.5t-374 -94q-151 0 -285.5 55.5t-230.5 151.5t-151.5 230.5t-55.5 285.5zM362 688q0 -198 133.5 -336.5t323.5 -138.5q123 0 228 63t166 171.5t61 236.5q0 195 -134 332t-323 137q-186 0 -320.5 -137.5
t-134.5 -327.5z" />
    <glyph glyph-name="Odieresis" unicode="&#xd6;" horiz-adv-x="1636" 
d="M1040 1516q-61 0 -104 43.5t-43 105.5q0 59 43.5 102t103.5 43q62 0 105 -43t43 -104q0 -60 -43.5 -103.5t-104.5 -43.5zM608 1516q-61 0 -104 43.5t-43 105.5q0 59 43.5 102t103.5 43q62 0 105 -43t43 -104q0 -60 -43.5 -103.5t-104.5 -43.5zM88 692q0 191 98 353.5
t266.5 257t368.5 94.5q201 0 368 -94.5t263 -259t96 -361.5q0 -198 -97 -361.5t-266 -257.5t-374 -94q-151 0 -285.5 55.5t-230.5 151.5t-151.5 230.5t-55.5 285.5zM362 688q0 -198 133.5 -336.5t323.5 -138.5q123 0 228 63t166 171.5t61 236.5q0 195 -134 332t-323 137
q-186 0 -320.5 -137.5t-134.5 -327.5z" />
    <glyph glyph-name="multiply" unicode="&#xd7;" 
d="M297 283l-117 114l285 285l-285 285l117 116l285 -284l284 284l115 -116l-285 -285l285 -285l-115 -114l-284 284z" />
    <glyph glyph-name="Oslash" unicode="&#xd8;" horiz-adv-x="1648" 
d="M143 18l138 177q-60 75 -80 106q-107 172 -107 381q0 148 57 280.5t154.5 228t233.5 151t288 55.5q199 0 375 -99l156 187l151 -127l-149 -182q67 -81 90 -121q49 -79 76.5 -178t27.5 -195q0 -143 -56.5 -275t-152 -228t-227 -153t-274.5 -57q-121 0 -230 26.5t-178 72.5
l-151 -179zM459 403l577 699q-108 51 -211 51q-187 0 -321.5 -137.5t-134.5 -329.5q0 -77 24 -153t66 -130zM600 270q66 -32 114 -44.5t107 -12.5q190 0 324.5 137.5t134.5 331.5q0 160 -92 283z" />
    <glyph glyph-name="Ugrave" unicode="&#xd9;" horiz-adv-x="1411" 
d="M727 1491l-342 233l170 140l281 -273zM258 166q-100 131 -100 364v836h266v-782q0 -104 8.5 -152t34.5 -92q34 -58 98.5 -92.5t141.5 -34.5q76 0 140.5 34t98.5 93q26 44 34.5 92t8.5 152v782h266v-836q0 -233 -100 -364q-71 -92 -190 -144.5t-258 -52.5
q-138 0 -258.5 52.5t-190.5 144.5z" />
    <glyph glyph-name="Uacute" unicode="&#xda;" horiz-adv-x="1411" 
d="M719 1491l-109 100l281 273l170 -140zM258 166q-100 131 -100 364v836h266v-782q0 -104 8.5 -152t34.5 -92q34 -58 98.5 -92.5t141.5 -34.5q76 0 140.5 34t98.5 93q26 44 34.5 92t8.5 152v782h266v-836q0 -233 -100 -364q-71 -92 -190 -144.5t-258 -52.5
q-138 0 -258.5 52.5t-190.5 144.5z" />
    <glyph glyph-name="Ucircumflex" unicode="&#xdb;" horiz-adv-x="1411" 
d="M487 1491l-122 123l346 282l352 -282l-127 -123l-225 184zM258 166q-100 131 -100 364v836h266v-782q0 -104 8.5 -152t34.5 -92q34 -58 98.5 -92.5t141.5 -34.5q76 0 140.5 34t98.5 93q26 44 34.5 92t8.5 152v782h266v-836q0 -233 -100 -364q-71 -92 -190 -144.5
t-258 -52.5q-138 0 -258.5 52.5t-190.5 144.5z" />
    <glyph glyph-name="Udieresis" unicode="&#xdc;" horiz-adv-x="1411" 
d="M930 1516q-61 0 -104.5 43.5t-43.5 105.5q0 59 44 102t104 43q62 0 104.5 -43t42.5 -104q0 -60 -43 -103.5t-104 -43.5zM498 1516q-61 0 -104.5 43.5t-43.5 105.5q0 59 44 102t104 43q62 0 104.5 -43t42.5 -104q0 -60 -43 -103.5t-104 -43.5zM258 166q-100 131 -100 364
v836h266v-782q0 -104 8.5 -152t34.5 -92q34 -58 98.5 -92.5t141.5 -34.5q76 0 140.5 34t98.5 93q26 44 34.5 92t8.5 152v782h266v-836q0 -233 -100 -364q-71 -92 -190 -144.5t-258 -52.5q-138 0 -258.5 52.5t-190.5 144.5z" />
    <glyph glyph-name="Yacute" unicode="&#xdd;" horiz-adv-x="1193" 
d="M598 1491l-109 100l281 273l170 -140zM461 0v627l-471 739h315l295 -475l289 475h317l-479 -739v-627h-266z" />
    <glyph glyph-name="Thorn" unicode="&#xde;" horiz-adv-x="1099" 
d="M158 0v1366h266v-192h119q196 0 305 -56q100 -52 155.5 -152t55.5 -225q0 -117 -48.5 -214.5t-133.5 -153.5q-104 -68 -283 -68h-170v-305h-266zM424 553h100q73 0 111 9.5t67 35.5q60 51 60 143q0 95 -59 141t-181 46h-98v-375z" />
    <glyph glyph-name="germandbls" unicode="&#xdf;" horiz-adv-x="1159" 
d="M119 0v1116q0 206 98 316q55 60 144 93.5t192 33.5q190 0 308 -110.5t118 -289.5q0 -92 -39 -161t-127 -130q59 -25 92.5 -45.5t63.5 -50.5q121 -121 121 -315q0 -172 -95.5 -299.5t-253.5 -165.5q-95 -21 -215 -21v224q65 1 107 13t84 40q55 38 86 96.5t31 126.5
q0 72 -34.5 133.5t-94.5 95.5q-66 38 -179 43v215q50 1 80 9.5t58 27.5q35 26 55 68.5t20 89.5q0 80 -52 131t-134 51q-61 0 -106 -28.5t-60 -77.5q-20 -59 -20 -219v-1010h-248z" />
    <glyph glyph-name="agrave" unicode="&#xe0;" horiz-adv-x="1165" 
d="M596 1042l-307 277l180 115l246 -310zM72 444q0 200 124.5 335.5t307.5 135.5q89 0 160 -34t135 -109v115h248v-887h-248v115q-60 -75 -129.5 -109.5t-161.5 -34.5q-186 0 -311 136t-125 337zM328 444q0 -103 73.5 -176t176.5 -73q101 0 174 72.5t73 172.5q0 106 -72 179
t-175 73t-176.5 -72.5t-73.5 -175.5z" />
    <glyph glyph-name="aacute" unicode="&#xe1;" horiz-adv-x="1165" 
d="M612 1042l-118 82l243 310l183 -115zM72 444q0 200 124.5 335.5t307.5 135.5q89 0 160 -34t135 -109v115h248v-887h-248v115q-60 -75 -129.5 -109.5t-161.5 -34.5q-186 0 -311 136t-125 337zM328 444q0 -103 73.5 -176t176.5 -73q101 0 174 72.5t73 172.5q0 106 -72 179
t-175 73t-176.5 -72.5t-73.5 -175.5z" />
    <glyph glyph-name="acircumflex" unicode="&#xe2;" horiz-adv-x="1165" 
d="M365 1042l-123 123l346 283l352 -283l-127 -123l-225 189zM72 444q0 200 124.5 335.5t307.5 135.5q89 0 160 -34t135 -109v115h248v-887h-248v115q-60 -75 -129.5 -109.5t-161.5 -34.5q-186 0 -311 136t-125 337zM328 444q0 -103 73.5 -176t176.5 -73q101 0 174 72.5
t73 172.5q0 106 -72 179t-175 73t-176.5 -72.5t-73.5 -175.5z" />
    <glyph glyph-name="atilde" unicode="&#xe3;" horiz-adv-x="1165" 
d="M246 1071q17 119 75.5 187.5t143.5 68.5q55 0 164 -41q66 -26 86.5 -31.5t42.5 -5.5q29 0 47 15t43 61h141q-25 -122 -88 -190t-153 -68q-51 0 -144 37q-104 39 -137 39q-54 0 -82 -72h-139zM72 444q0 200 124.5 335.5t307.5 135.5q89 0 160 -34t135 -109v115h248v-887
h-248v115q-60 -75 -129.5 -109.5t-161.5 -34.5q-186 0 -311 136t-125 337zM328 444q0 -103 73.5 -176t176.5 -73q101 0 174 72.5t73 172.5q0 106 -72 179t-175 73t-176.5 -72.5t-73.5 -175.5z" />
    <glyph glyph-name="adieresis" unicode="&#xe4;" horiz-adv-x="1165" 
d="M809 1053q-61 0 -104 43.5t-43 105.5q0 59 43.5 102.5t103.5 43.5q61 0 104 -43t43 -105q0 -60 -43.5 -103.5t-103.5 -43.5zM385 1053q-61 0 -104 43.5t-43 105.5q0 59 43.5 102.5t103.5 43.5q61 0 104 -43t43 -105q0 -60 -43.5 -103.5t-103.5 -43.5zM72 444
q0 200 124.5 335.5t307.5 135.5q89 0 160 -34t135 -109v115h248v-887h-248v115q-60 -75 -129.5 -109.5t-161.5 -34.5q-186 0 -311 136t-125 337zM328 444q0 -103 73.5 -176t176.5 -73q101 0 174 72.5t73 172.5q0 106 -72 179t-175 73t-176.5 -72.5t-73.5 -175.5z" />
    <glyph glyph-name="aring" unicode="&#xe5;" horiz-adv-x="1165" 
d="M594 1042q-78 0 -133 56t-55 135q0 75 56 130.5t132 55.5q78 0 133 -55t55 -133t-55 -133.5t-133 -55.5zM594 1159q29 0 50.5 21.5t21.5 50.5t-21.5 50.5t-50.5 21.5t-50.5 -21.5t-21.5 -50.5t21.5 -50.5t50.5 -21.5zM72 444q0 200 124.5 335.5t307.5 135.5q89 0 160 -34
t135 -109v115h248v-887h-248v115q-60 -75 -129.5 -109.5t-161.5 -34.5q-186 0 -311 136t-125 337zM328 444q0 -103 73.5 -176t176.5 -73q101 0 174 72.5t73 172.5q0 106 -72 179t-175 73t-176.5 -72.5t-73.5 -175.5z" />
    <glyph glyph-name="ae" unicode="&#xe6;" horiz-adv-x="1652" 
d="M72 260q0 134 97.5 214.5t258.5 80.5q134 0 246 -63q2 16 2 45q0 88 -59 136t-166 48q-120 0 -244 -37v199q128 32 254 32q121 0 199 -35.5t131 -115.5q118 151 335 151q138 0 247.5 -63t160.5 -172q49 -100 49 -246v-31h-670q6 -112 67 -175.5t161 -63.5q69 0 120.5 31
t79.5 90l232 -37q-54 -132 -167.5 -204.5t-268.5 -72.5q-230 0 -346 168q-128 -168 -355 -168q-163 0 -263.5 80t-100.5 209zM922 561h421q-23 90 -74.5 133t-135.5 43q-82 0 -133.5 -42.5t-77.5 -133.5zM311 272q0 -54 48.5 -88t125.5 -34q80 0 134.5 36t54.5 90
q0 44 -53.5 73.5t-135.5 29.5q-80 0 -127 -29t-47 -78z" />
    <glyph glyph-name="ccedilla" unicode="&#xe7;" horiz-adv-x="854" 
d="M72 438q0 203 140 340t347 137q122 0 225 -53v-246q-54 46 -99.5 65t-102.5 19q-109 0 -181.5 -74t-72.5 -184t72.5 -183t181.5 -73q58 0 104.5 19t97.5 63v-241q-118 -56 -229 -56q-134 0 -245 61.5t-174.5 169t-63.5 236.5zM289 -365l200 273l160 -88l-237 -256z" />
    <glyph glyph-name="egrave" unicode="&#xe8;" horiz-adv-x="1060" 
d="M545 1042l-307 277l180 115l246 -310zM72 442q0 215 126.5 344t338.5 129q211 0 332.5 -128t121.5 -351v-33h-665q4 -115 60 -176t157 -61q70 0 119 28t92 91l229 -37q-56 -135 -166.5 -206t-267.5 -71q-217 0 -347 128.5t-130 342.5zM334 561h420q-20 86 -74 131
t-137 45q-82 0 -137 -46.5t-72 -129.5z" />
    <glyph glyph-name="eacute" unicode="&#xe9;" horiz-adv-x="1060" 
d="M541 1042l-119 82l244 310l182 -115zM72 442q0 215 126.5 344t338.5 129q211 0 332.5 -128t121.5 -351v-33h-665q4 -115 60 -176t157 -61q70 0 119 28t92 91l229 -37q-56 -135 -166.5 -206t-267.5 -71q-217 0 -347 128.5t-130 342.5zM334 561h420q-20 86 -74 131t-137 45
q-82 0 -137 -46.5t-72 -129.5z" />
    <glyph glyph-name="ecircumflex" unicode="&#xea;" horiz-adv-x="1060" 
d="M311 1042l-123 123l347 283l352 -283l-127 -123l-225 189zM72 442q0 215 126.5 344t338.5 129q211 0 332.5 -128t121.5 -351v-33h-665q4 -115 60 -176t157 -61q70 0 119 28t92 91l229 -37q-56 -135 -166.5 -206t-267.5 -71q-217 0 -347 128.5t-130 342.5zM334 561h420
q-20 86 -74 131t-137 45q-82 0 -137 -46.5t-72 -129.5z" />
    <glyph glyph-name="edieresis" unicode="&#xeb;" horiz-adv-x="1060" 
d="M750 1053q-61 0 -104.5 43.5t-43.5 105.5q0 59 44 102.5t104 43.5q61 0 104 -43t43 -105q0 -60 -43.5 -103.5t-103.5 -43.5zM326 1053q-61 0 -104.5 43.5t-43.5 105.5q0 59 44 102.5t104 43.5q61 0 104 -43t43 -105q0 -60 -43.5 -103.5t-103.5 -43.5zM72 442
q0 215 126.5 344t338.5 129q211 0 332.5 -128t121.5 -351v-33h-665q4 -115 60 -176t157 -61q70 0 119 28t92 91l229 -37q-56 -135 -166.5 -206t-267.5 -71q-217 0 -347 128.5t-130 342.5zM334 561h420q-20 86 -74 131t-137 45q-82 0 -137 -46.5t-72 -129.5z" />
    <glyph glyph-name="igrave" unicode="&#xec;" horiz-adv-x="479" 
d="M252 1042l-307 277l180 115l246 -310zM115 0v887h247v-887h-247z" />
    <glyph glyph-name="iacute" unicode="&#xed;" horiz-adv-x="479" 
d="M250 1042l-119 82l244 310l182 -115zM117 0v887h248v-887h-248z" />
    <glyph glyph-name="icircumflex" unicode="&#xee;" horiz-adv-x="479" 
d="M61 1042l-122 123l305 283l311 -283l-127 -123l-184 189zM117 0v887h248v-887h-248z" />
    <glyph glyph-name="idieresis" unicode="&#xef;" horiz-adv-x="479" 
d="M428 1053q-61 0 -104 43.5t-43 105.5q0 59 43.5 102.5t103.5 43.5q61 0 104 -43t43 -105q0 -60 -43.5 -103.5t-103.5 -43.5zM66 1053q-61 0 -104.5 43.5t-43.5 105.5q0 59 44 102.5t104 43.5q61 0 104 -43t43 -105q0 -60 -43.5 -103.5t-103.5 -43.5zM117 0v887h248v-887
h-248z" />
    <glyph glyph-name="eth" unicode="&#xf0;" horiz-adv-x="1157" 
d="M72 440q0 212 143.5 343.5t374.5 131.5q21 0 39 -2q-68 131 -160 236l-190 -96l-80 164l147 75q-30 23 -49.5 34t-85.5 42q-14 10 -43 21l74 147q62 -21 150 -69.5t128 -82.5l232 115l84 -168l-152 -78q190 -173 295.5 -382t105.5 -412q0 -220 -137 -354t-364 -134
q-224 0 -368 132t-144 337zM328 446q0 -105 73.5 -178t178.5 -73q103 0 176 72.5t73 176.5t-72.5 176t-176.5 72q-103 0 -177.5 -73t-74.5 -173z" />
    <glyph glyph-name="ntilde" unicode="&#xf1;" horiz-adv-x="1091" 
d="M209 1071q17 119 75.5 187.5t143.5 68.5q55 0 164 -41q66 -26 86.5 -31.5t42.5 -5.5q29 0 47 15t43 61h141q-25 -122 -88 -190t-153 -68q-51 0 -144 37q-104 39 -137 39q-54 0 -82 -72h-139zM119 0v887h248v-111q58 75 122.5 107t155.5 32q78 0 146 -27.5t112 -78.5
q38 -44 54 -99.5t16 -146.5v-563h-248v492q0 100 -25 143q-19 32 -57.5 51t-87.5 19q-96 0 -142 -60t-46 -186v-459h-248z" />
    <glyph glyph-name="ograve" unicode="&#xf2;" horiz-adv-x="1157" 
d="M584 1042l-308 277l181 115l245 -310zM72 451q0 203 143.5 333.5t366.5 130.5q222 0 362.5 -132t140.5 -339q0 -211 -142.5 -342t-369.5 -131q-223 0 -362 133t-139 347zM328 446q0 -105 73.5 -178t178.5 -73q103 0 176 72t73 175q0 104 -73.5 177t-177.5 73
q-101 0 -175.5 -73t-74.5 -173z" />
    <glyph glyph-name="oacute" unicode="&#xf3;" horiz-adv-x="1157" 
d="M588 1042l-119 82l244 310l182 -115zM72 451q0 203 143.5 333.5t366.5 130.5q222 0 362.5 -132t140.5 -339q0 -211 -142.5 -342t-369.5 -131q-223 0 -362 133t-139 347zM328 446q0 -105 73.5 -178t178.5 -73q103 0 176 72t73 175q0 104 -73.5 177t-177.5 73
q-101 0 -175.5 -73t-74.5 -173z" />
    <glyph glyph-name="ocircumflex" unicode="&#xf4;" horiz-adv-x="1157" 
d="M360 1042l-122 123l346 283l352 -283l-127 -123l-225 189zM72 451q0 203 143.5 333.5t366.5 130.5q222 0 362.5 -132t140.5 -339q0 -211 -142.5 -342t-369.5 -131q-223 0 -362 133t-139 347zM328 446q0 -105 73.5 -178t178.5 -73q103 0 176 72t73 175q0 104 -73.5 177
t-177.5 73q-101 0 -175.5 -73t-74.5 -173z" />
    <glyph glyph-name="otilde" unicode="&#xf5;" horiz-adv-x="1157" 
d="M236 1071q17 119 75.5 187.5t143.5 68.5q54 0 163 -41q66 -26 87 -31.5t43 -5.5q29 0 47 15t43 61h141q-25 -122 -88.5 -190t-153.5 -68q-50 0 -143 37q-104 39 -137 39q-54 0 -82 -72h-139zM72 451q0 203 143.5 333.5t366.5 130.5q222 0 362.5 -132t140.5 -339
q0 -211 -142.5 -342t-369.5 -131q-223 0 -362 133t-139 347zM328 446q0 -105 73.5 -178t178.5 -73q103 0 176 72t73 175q0 104 -73.5 177t-177.5 73q-101 0 -175.5 -73t-74.5 -173z" />
    <glyph glyph-name="odieresis" unicode="&#xf6;" horiz-adv-x="1157" 
d="M784 1053q-61 0 -104 43.5t-43 105.5q0 59 43.5 102.5t103.5 43.5q62 0 105 -43t43 -105q0 -60 -44 -103.5t-104 -43.5zM360 1053q-61 0 -104 43.5t-43 105.5q0 59 43.5 102.5t103.5 43.5q62 0 105 -43t43 -105q0 -60 -44 -103.5t-104 -43.5zM72 451q0 203 143.5 333.5
t366.5 130.5q222 0 362.5 -132t140.5 -339q0 -211 -142.5 -342t-369.5 -131q-223 0 -362 133t-139 347zM328 446q0 -105 73.5 -178t178.5 -73q103 0 176 72t73 175q0 104 -73.5 177t-177.5 73q-101 0 -175.5 -73t-74.5 -173z" />
    <glyph glyph-name="divide" unicode="&#xf7;" 
d="M580 899q-52 0 -88.5 37t-36.5 90q0 50 37 86.5t88 36.5q52 0 88.5 -36.5t36.5 -88.5q0 -51 -37 -88t-88 -37zM123 600v164h915v-164h-915zM455 344q0 50 37 86.5t88 36.5q52 0 88.5 -36.5t36.5 -88.5q0 -51 -37 -88t-88 -37q-52 0 -88.5 37t-36.5 90z" />
    <glyph glyph-name="oslash" unicode="&#xf8;" horiz-adv-x="1159" 
d="M96 -20l107 129q-131 134 -131 335q0 207 142 339t364 132q140 0 256 -55l116 141l115 -94l-111 -131q131 -137 131 -334q0 -206 -141 -338.5t-362 -132.5q-131 0 -258 56l-121 -142zM369 307l307 365q-50 20 -98 20q-103 0 -176.5 -73.5t-73.5 -176.5q0 -66 41 -135z
M481 215q50 -20 97 -20q104 0 177.5 72t73.5 175q0 69 -41 138z" />
    <glyph glyph-name="ugrave" unicode="&#xf9;" horiz-adv-x="1095" 
d="M559 1042l-307 277l180 115l246 -310zM119 344v543h248v-502q0 -203 182 -203q180 0 180 203v502h248v-543q0 -180 -111 -276.5t-317 -96.5q-207 0 -318.5 96.5t-111.5 276.5z" />
    <glyph glyph-name="uacute" unicode="&#xfa;" horiz-adv-x="1095" 
d="M569 1042l-118 82l243 310l183 -115zM119 344v543h248v-502q0 -203 182 -203q180 0 180 203v502h248v-543q0 -180 -111 -276.5t-317 -96.5q-207 0 -318.5 96.5t-111.5 276.5z" />
    <glyph glyph-name="ucircumflex" unicode="&#xfb;" horiz-adv-x="1095" 
d="M328 1042l-123 123l346 283l352 -283l-127 -123l-225 189zM119 344v543h248v-502q0 -203 182 -203q180 0 180 203v502h248v-543q0 -180 -111 -276.5t-317 -96.5q-207 0 -318.5 96.5t-111.5 276.5z" />
    <glyph glyph-name="udieresis" unicode="&#xfc;" horiz-adv-x="1095" 
d="M766 1053q-61 0 -104.5 43.5t-43.5 105.5q0 59 44 102.5t104 43.5q61 0 104 -43t43 -105q0 -60 -43.5 -103.5t-103.5 -43.5zM342 1053q-61 0 -104 43.5t-43 105.5q0 59 43.5 102.5t103.5 43.5q61 0 104 -43t43 -105q0 -60 -43.5 -103.5t-103.5 -43.5zM119 344v543h248
v-502q0 -203 182 -203q180 0 180 203v502h248v-543q0 -180 -111 -276.5t-317 -96.5q-207 0 -318.5 96.5t-111.5 276.5z" />
    <glyph glyph-name="yacute" unicode="&#xfd;" horiz-adv-x="1095" 
d="M569 1042l-118 82l243 310l183 -115zM422 135l-420 752h289l266 -504l252 504h285l-717 -1360h-281z" />
    <glyph glyph-name="thorn" unicode="&#xfe;" 
d="M375 92v-559h-256v1960h256v-698q63 66 127.5 94.5t150.5 28.5q189 0 313 -135t124 -339q0 -201 -126 -336t-313 -135q-83 0 -147 28t-129 91zM365 440q0 -106 62 -174.5t159 -68.5q100 0 164.5 68.5t64.5 174.5q0 110 -62.5 179t-162.5 69q-99 0 -162 -69.5t-63 -178.5z
" />
    <glyph glyph-name="ydieresis" unicode="&#xff;" horiz-adv-x="1095" 
d="M772 1053q-61 0 -104 43.5t-43 105.5q0 59 43.5 102.5t103.5 43.5q62 0 105 -43t43 -105q0 -60 -44 -103.5t-104 -43.5zM348 1053q-61 0 -104 43.5t-43 105.5q0 59 43.5 102.5t103.5 43.5q62 0 105 -43t43 -105q0 -60 -44 -103.5t-104 -43.5zM422 135l-420 752h289
l266 -504l252 504h285l-717 -1360h-281z" />
    <glyph glyph-name="Amacron" unicode="&#x100;" horiz-adv-x="1372" 
d="M358 1542v164h682v-164h-682zM2 0l592 1395h201l573 -1395h-285l-116 289h-559l-123 -289h-283zM494 504h389l-191 491z" />
    <glyph glyph-name="amacron" unicode="&#x101;" horiz-adv-x="1165" 
d="M279 1128v164h655v-164h-655zM72 444q0 200 124.5 335.5t307.5 135.5q89 0 160 -34t135 -109v115h248v-887h-248v115q-60 -75 -129.5 -109.5t-161.5 -34.5q-186 0 -311 136t-125 337zM328 444q0 -103 73.5 -176t176.5 -73q101 0 174 72.5t73 172.5q0 106 -72 179t-175 73
t-176.5 -72.5t-73.5 -175.5z" />
    <glyph glyph-name="Abreve" unicode="&#x102;" horiz-adv-x="1372" 
d="M698 1499q-138 0 -228.5 77.5t-107.5 209.5h173q23 -69 61.5 -99t101.5 -30q64 0 102.5 30t63.5 99h172q-17 -132 -108 -209.5t-230 -77.5zM2 0l592 1395h201l573 -1395h-285l-116 289h-559l-123 -289h-283zM494 504h389l-191 491z" />
    <glyph glyph-name="abreve" unicode="&#x103;" horiz-adv-x="1165" 
d="M582 1042q-138 0 -228.5 77.5t-107.5 211.5h172q23 -69 62 -99t102 -30q64 0 103.5 30.5t62.5 98.5h172q-17 -134 -108 -211.5t-230 -77.5zM72 444q0 200 124.5 335.5t307.5 135.5q89 0 160 -34t135 -109v115h248v-887h-248v115q-60 -75 -129.5 -109.5t-161.5 -34.5
q-186 0 -311 136t-125 337zM328 444q0 -103 73.5 -176t176.5 -73q101 0 174 72.5t73 172.5q0 106 -72 179t-175 73t-176.5 -72.5t-73.5 -175.5z" />
    <glyph glyph-name="Aogonek" unicode="&#x104;" horiz-adv-x="1372" 
d="M2 0l592 1395h201l573 -1395h-59q-123 -92 -123 -168q0 -35 24.5 -58.5t59.5 -23.5q49 0 114 39l-34 -160q-57 -32 -142 -32q-91 0 -149 48.5t-58 123.5q0 115 164 231h-82l-116 289h-559l-123 -289h-283zM494 504h389l-191 491z" />
    <glyph glyph-name="aogonek" unicode="&#x105;" horiz-adv-x="1165" 
d="M72 444q0 200 124.5 335.5t307.5 135.5q89 0 160 -34t135 -109v115h248v-887h-129q-61 -43 -88 -78.5t-27 -73.5q0 -35 25 -58t63 -23q45 0 98 26l-28 -137q-59 -35 -132 -35q-76 0 -129 46t-53 112q0 122 152 221v115q-60 -75 -129.5 -109.5t-161.5 -34.5
q-186 0 -311 136t-125 337zM328 444q0 -103 73.5 -176t176.5 -73q101 0 174 72.5t73 172.5q0 106 -72 179t-175 73t-176.5 -72.5t-73.5 -175.5z" />
    <glyph glyph-name="Cacute" unicode="&#x106;" horiz-adv-x="1232" 
d="M786 1491l-88 96l258 275l152 -138zM88 676q0 196 96.5 362t262.5 262.5t362 96.5q165 0 334 -84v-314q-84 82 -161.5 118t-172.5 36q-189 0 -318 -137t-129 -338q0 -199 129.5 -332t323.5 -133q95 0 170.5 34.5t157.5 114.5v-313q-170 -80 -334 -80q-148 0 -281.5 55.5
t-230 149.5t-153 225t-56.5 277z" />
    <glyph glyph-name="cacute" unicode="&#x107;" horiz-adv-x="854" 
d="M520 1042l-100 82l205 310l168 -115zM72 438q0 203 140 340t347 137q122 0 225 -53v-246q-54 41 -99.5 58.5t-100.5 17.5q-110 0 -183 -71.5t-73 -178.5t73 -177t183 -70q57 0 103 16.5t97 56.5v-241q-115 -56 -229 -56q-134 0 -245 61.5t-174.5 169t-63.5 236.5z" />
    <glyph glyph-name="Ccircumflex" unicode="&#x108;" horiz-adv-x="1232" 
d="M580 1491l-123 123l346 282l352 -282l-127 -123l-225 188zM88 676q0 196 96.5 362t262.5 262.5t362 96.5q165 0 334 -84v-314q-84 82 -161.5 118t-172.5 36q-189 0 -318 -137t-129 -338q0 -199 129.5 -332t323.5 -133q95 0 170.5 34.5t157.5 114.5v-313
q-170 -80 -334 -80q-148 0 -281.5 55.5t-230 149.5t-153 225t-56.5 277z" />
    <glyph glyph-name="ccircumflex" unicode="&#x109;" horiz-adv-x="854" 
d="M283 1042l-123 123l346 283l352 -283l-127 -123l-225 189zM72 438q0 203 140 340t347 137q122 0 225 -53v-246q-54 41 -99.5 58.5t-100.5 17.5q-110 0 -183 -71.5t-73 -178.5t73 -177t183 -70q57 0 103 16.5t97 56.5v-241q-115 -56 -229 -56q-134 0 -245 61.5t-174.5 169
t-63.5 236.5z" />
    <glyph glyph-name="Cdotaccent" unicode="&#x10a;" horiz-adv-x="1232" 
d="M770 1501q-65 0 -110.5 46t-45.5 112q0 61 46.5 106t109.5 45t108.5 -45t45.5 -108q0 -64 -45.5 -110t-108.5 -46zM88 676q0 196 96.5 362t262.5 262.5t362 96.5q165 0 334 -84v-314q-84 82 -161.5 118t-172.5 36q-189 0 -318 -137t-129 -338q0 -199 129.5 -332
t323.5 -133q95 0 170.5 34.5t157.5 114.5v-313q-170 -80 -334 -80q-148 0 -281.5 55.5t-230 149.5t-153 225t-56.5 277z" />
    <glyph glyph-name="cdotaccent" unicode="&#x10b;" horiz-adv-x="854" 
d="M530 1053q-65 0 -110 45.5t-45 111.5q0 62 46 107t109 45t108.5 -45.5t45.5 -108.5q0 -64 -45.5 -109.5t-108.5 -45.5zM72 438q0 203 140 340t347 137q122 0 225 -53v-246q-54 41 -99.5 58.5t-100.5 17.5q-110 0 -183 -71.5t-73 -178.5t73 -177t183 -70q57 0 103 16.5
t97 56.5v-241q-115 -56 -229 -56q-134 0 -245 61.5t-174.5 169t-63.5 236.5z" />
    <glyph glyph-name="Ccaron" unicode="&#x10c;" horiz-adv-x="1232" 
d="M791 1491l-347 285l123 120l224 -182l225 182l127 -120zM88 676q0 196 96.5 362t262.5 262.5t362 96.5q165 0 334 -84v-314q-84 82 -161.5 118t-172.5 36q-189 0 -318 -137t-129 -338q0 -199 129.5 -332t323.5 -133q95 0 170.5 34.5t157.5 114.5v-313q-170 -80 -334 -80
q-148 0 -281.5 55.5t-230 149.5t-153 225t-56.5 277z" />
    <glyph glyph-name="ccaron" unicode="&#x10d;" horiz-adv-x="854" 
d="M520 1042l-346 285l123 121l223 -186l225 186l127 -121zM72 438q0 203 140 340t347 137q122 0 225 -53v-246q-54 41 -99.5 58.5t-100.5 17.5q-110 0 -183 -71.5t-73 -178.5t73 -177t183 -70q57 0 103 16.5t97 56.5v-241q-115 -56 -229 -56q-134 0 -245 61.5t-174.5 169
t-63.5 236.5z" />
    <glyph glyph-name="Dcaron" unicode="&#x10e;" horiz-adv-x="1370" 
d="M614 1491l-346 285l123 120l223 -182l226 182l127 -120zM158 0v1366h391q297 0 489 -158q115 -94 179.5 -232t64.5 -292q0 -152 -65.5 -290.5t-182.5 -235.5q-99 -83 -215 -120.5t-272 -37.5h-389zM424 231h72q129 0 215 26t149 83q69 61 108.5 153.5t39.5 190.5
t-39.5 188t-108.5 152q-66 60 -150.5 85.5t-213.5 25.5h-72v-904z" />
    <glyph glyph-name="dcaron" unicode="&#x10f;" horiz-adv-x="1482" 
d="M1114 1178l148 364l208 -18l-225 -361zM72 444q0 200 124.5 335.5t307.5 135.5q89 0 160 -34t135 -109v762h248v-1534h-248v115q-60 -75 -129.5 -109.5t-161.5 -34.5q-186 0 -311 136t-125 337zM328 444q0 -103 73.5 -176t176.5 -73q101 0 174 72.5t73 172.5
q0 106 -72 179t-175 73t-176.5 -72.5t-73.5 -175.5z" />
    <glyph glyph-name="Dcroat" unicode="&#x110;" horiz-adv-x="1370" 
d="M158 0v580h-115v204h115v582h391q297 0 489 -158q115 -93 179.5 -232t64.5 -292t-65.5 -291t-182.5 -235q-99 -83 -215 -120.5t-272 -37.5h-389zM424 231h72q129 0 215 26t149 83q69 62 108.5 153t39.5 189q0 99 -39.5 189.5t-108.5 152.5q-66 60 -149.5 85.5
t-214.5 25.5h-72v-351h291v-204h-291v-349z" />
    <glyph glyph-name="dcroat" unicode="&#x111;" horiz-adv-x="1165" 
d="M72 444q0 200 124.5 335.5t307.5 135.5q89 0 160 -34t135 -109v381h-246v190h246v191h248v-191h108v-190h-108v-1153h-248v115q-60 -75 -129.5 -109.5t-161.5 -34.5q-186 0 -311 136t-125 337zM328 444q0 -103 73.5 -176t176.5 -73q101 0 174 72.5t73 172.5
q0 106 -72 179t-175 73t-176.5 -72.5t-73.5 -175.5z" />
    <glyph glyph-name="Emacron" unicode="&#x112;" horiz-adv-x="1013" 
d="M201 1542v164h684v-164h-684zM158 0v1366h755v-231h-489v-304h471v-231h-471v-369h489v-231h-755z" />
    <glyph glyph-name="emacron" unicode="&#x113;" horiz-adv-x="1060" 
d="M231 1128v164h656v-164h-656zM72 442q0 215 126.5 344t338.5 129q211 0 332.5 -128t121.5 -351v-33h-665q4 -115 60 -176t157 -61q70 0 119 28t92 91l229 -37q-56 -135 -166.5 -206t-267.5 -71q-217 0 -347 128.5t-130 342.5zM334 561h420q-20 86 -74 131t-137 45
q-82 0 -137 -46.5t-72 -129.5z" />
    <glyph glyph-name="Edotaccent" unicode="&#x116;" horiz-adv-x="1013" 
d="M557 1501q-65 0 -110.5 46t-45.5 112q0 61 46.5 106t109.5 45t108.5 -45t45.5 -108q0 -64 -45.5 -110t-108.5 -46zM158 0v1366h755v-231h-489v-304h471v-231h-471v-369h489v-231h-755z" />
    <glyph glyph-name="edotaccent" unicode="&#x117;" horiz-adv-x="1060" 
d="M539 1053q-65 0 -110.5 45.5t-45.5 111.5q0 61 46.5 106.5t109.5 45.5t108 -45.5t45 -108.5q0 -64 -45 -109.5t-108 -45.5zM72 442q0 215 126.5 344t338.5 129q211 0 332.5 -128t121.5 -351v-33h-665q4 -115 60 -176t157 -61q70 0 119 28t92 91l229 -37
q-56 -135 -166.5 -206t-267.5 -71q-217 0 -347 128.5t-130 342.5zM334 561h420q-20 86 -74 131t-137 45q-82 0 -137 -46.5t-72 -129.5z" />
    <glyph glyph-name="Eogonek" unicode="&#x118;" horiz-adv-x="1013" 
d="M158 0v1366h755v-231h-489v-304h471v-231h-471v-369h489v-231h-88q-123 -92 -123 -168q0 -35 24.5 -58.5t59.5 -23.5q53 0 115 39l-35 -160q-57 -32 -141 -32q-91 0 -149 48.5t-58 123.5q0 115 164 231h-524z" />
    <glyph glyph-name="eogonek" unicode="&#x119;" horiz-adv-x="1060" 
d="M72 442q0 215 126.5 344t338.5 129q211 0 332.5 -128t121.5 -351v-33h-665q4 -115 60 -176t157 -61q70 0 119 28t92 91l229 -37q-55 -141 -176 -211q-61 -44 -94 -94t-33 -95q0 -35 25 -58t63 -23q45 0 98 26l-28 -137q-59 -35 -131 -35q-76 0 -129.5 46t-53.5 112
q0 104 86 196q-25 -4 -63 -4q-215 0 -345 128.5t-130 342.5zM334 561h420q-20 86 -74 131t-137 45q-82 0 -137 -46.5t-72 -129.5z" />
    <glyph glyph-name="Ecaron" unicode="&#x11a;" horiz-adv-x="1013" 
d="M539 1491l-346 285l122 120l224 -182l225 182l127 -120zM158 0v1366h755v-231h-489v-304h471v-231h-471v-369h489v-231h-755z" />
    <glyph glyph-name="ecaron" unicode="&#x11b;" horiz-adv-x="1060" 
d="M543 1042l-346 285l122 121l224 -186l225 186l127 -121zM72 442q0 215 126.5 344t338.5 129q211 0 332.5 -128t121.5 -351v-33h-665q4 -115 60 -176t157 -61q70 0 119 28t92 91l229 -37q-56 -135 -166.5 -206t-267.5 -71q-217 0 -347 128.5t-130 342.5zM334 561h420
q-20 86 -74 131t-137 45q-82 0 -137 -46.5t-72 -129.5z" />
    <glyph glyph-name="Gcircumflex" unicode="&#x11c;" horiz-adv-x="1560" 
d="M573 1491l-122 123l346 282l352 -282l-127 -123l-225 188zM88 676q0 205 93 370t259 258t373 93q191 0 340 -82t246 -240l-234 -125q-125 203 -354 203q-192 0 -320.5 -136.5t-128.5 -340.5q0 -200 127.5 -332.5t319.5 -132.5q146 0 244.5 79.5t113.5 209.5h-321v231h624
q-1 -149 -17 -238t-54 -167q-87 -172 -239.5 -264.5t-354.5 -92.5q-204 0 -368 91t-256.5 253t-92.5 363z" />
    <glyph glyph-name="gcircumflex" unicode="&#x11d;" 
d="M354 1042l-123 123l347 283l352 -283l-127 -123l-225 189zM94 -104h271q38 -160 208 -160q101 0 166 65q56 56 56 185v133q-69 -80 -138.5 -114t-162.5 -34q-183 0 -302.5 130t-119.5 331q0 209 123 346t311 137q92 0 159 -33t130 -110v115h247v-854q0 -136 -21.5 -210
t-78.5 -142q-135 -156 -373 -156q-269 0 -407 194q-32 46 -47 84.5t-21 92.5zM328 444q0 -103 73.5 -176t176.5 -73q101 0 174 72.5t73 172.5q0 106 -72 179t-175 73t-176.5 -73.5t-73.5 -174.5z" />
    <glyph glyph-name="Gbreve" unicode="&#x11e;" horiz-adv-x="1560" 
d="M819 1499q-138 0 -228.5 77.5t-107.5 209.5h172q23 -69 62 -99t102 -30q64 0 102.5 30t63.5 99h172q-17 -132 -108 -209.5t-230 -77.5zM88 676q0 205 93 370t259 258t373 93q191 0 340 -82t246 -240l-234 -125q-125 203 -354 203q-192 0 -320.5 -136.5t-128.5 -340.5
q0 -200 127.5 -332.5t319.5 -132.5q146 0 244.5 79.5t113.5 209.5h-321v231h624q-1 -149 -17 -238t-54 -167q-87 -172 -239.5 -264.5t-354.5 -92.5q-204 0 -368 91t-256.5 253t-92.5 363z" />
    <glyph glyph-name="gbreve" unicode="&#x11f;" 
d="M588 1042q-139 0 -230 78t-106 211h172q23 -69 61.5 -99t102.5 -30t102.5 30.5t63.5 98.5h170q-15 -133 -106 -211t-230 -78zM94 -104h271q38 -160 208 -160q101 0 166 65q56 56 56 185v133q-69 -80 -138.5 -114t-162.5 -34q-183 0 -302.5 130t-119.5 331q0 209 123 346
t311 137q92 0 159 -33t130 -110v115h247v-854q0 -136 -21.5 -210t-78.5 -142q-135 -156 -373 -156q-269 0 -407 194q-32 46 -47 84.5t-21 92.5zM328 444q0 -103 73.5 -176t176.5 -73q101 0 174 72.5t73 172.5q0 106 -72 179t-175 73t-176.5 -73.5t-73.5 -174.5z" />
    <glyph glyph-name="Gdotaccent" unicode="&#x120;" horiz-adv-x="1560" 
d="M778 1501q-65 0 -110 46t-45 112q0 61 46 106t109 45t108.5 -45t45.5 -108q0 -64 -45.5 -110t-108.5 -46zM88 676q0 205 93 370t259 258t373 93q191 0 340 -82t246 -240l-234 -125q-125 203 -354 203q-192 0 -320.5 -136.5t-128.5 -340.5q0 -200 127.5 -332.5
t319.5 -132.5q146 0 244.5 79.5t113.5 209.5h-321v231h624q-1 -149 -17 -238t-54 -167q-87 -172 -239.5 -264.5t-354.5 -92.5q-204 0 -368 91t-256.5 253t-92.5 363z" />
    <glyph glyph-name="gdotaccent" unicode="&#x121;" 
d="M582 1053q-65 0 -110.5 45.5t-45.5 111.5q0 61 46.5 106.5t109.5 45.5t108 -45.5t45 -108.5q0 -64 -45 -109.5t-108 -45.5zM94 -104h271q38 -160 208 -160q101 0 166 65q56 56 56 185v133q-69 -80 -138.5 -114t-162.5 -34q-183 0 -302.5 130t-119.5 331q0 209 123 346
t311 137q92 0 159 -33t130 -110v115h247v-854q0 -136 -21.5 -210t-78.5 -142q-135 -156 -373 -156q-269 0 -407 194q-32 46 -47 84.5t-21 92.5zM328 444q0 -103 73.5 -176t176.5 -73q101 0 174 72.5t73 172.5q0 106 -72 179t-175 73t-176.5 -73.5t-73.5 -174.5z" />
    <glyph glyph-name="uni0122" unicode="&#x122;" horiz-adv-x="1560" 
d="M88 676q0 205 93 370t259 258t373 93q191 0 340 -82t246 -240l-234 -125q-125 203 -354 203q-192 0 -320.5 -136.5t-128.5 -340.5q0 -200 127.5 -332.5t319.5 -132.5q146 0 244.5 79.5t113.5 209.5h-321v231h624q-1 -149 -17 -238t-54 -167q-87 -172 -239.5 -264.5
t-354.5 -92.5q-204 0 -368 91t-256.5 253t-92.5 363zM682 -109l221 -18l-231 -367l-137 15z" />
    <glyph glyph-name="uni0123" unicode="&#x123;" 
d="M461 1065l223 360l131 -14l-147 -364zM94 -104h271q38 -160 208 -160q101 0 166 65q56 56 56 185v133q-69 -80 -138.5 -114t-162.5 -34q-183 0 -302.5 130t-119.5 331q0 209 123 346t311 137q92 0 159 -33t130 -110v115h247v-854q0 -136 -21.5 -210t-78.5 -142
q-135 -156 -373 -156q-269 0 -407 194q-32 46 -47 84.5t-21 92.5zM328 444q0 -103 73.5 -176t176.5 -73q101 0 174 72.5t73 172.5q0 106 -72 179t-175 73t-176.5 -73.5t-73.5 -174.5z" />
    <glyph glyph-name="Hcircumflex" unicode="&#x124;" horiz-adv-x="1423" 
d="M481 1491l-123 123l347 282l352 -282l-127 -123l-225 188zM158 0v1366h266v-528h577v528h267v-1366h-267v606h-577v-606h-266z" />
    <glyph glyph-name="hcircumflex" unicode="&#x125;" horiz-adv-x="1091" 
d="M14 1491l-123 123l347 282l352 -282l-127 -123l-225 188zM119 0v1534h248v-762q59 77 123 110t155 33q79 0 146.5 -28t111.5 -80q39 -46 54.5 -101.5t15.5 -148.5v-557h-248v485q0 105 -25 148q-19 33 -57.5 52.5t-87.5 19.5q-95 0 -141.5 -61.5t-46.5 -188.5v-455h-248z
" />
    <glyph glyph-name="Hbar" unicode="&#x126;" horiz-adv-x="1423" 
d="M158 0v989h-90v205h90v172h266v-172h577v172h267v-172h90v-205h-90v-989h-267v606h-577v-606h-266zM424 838h577v151h-577v-151z" />
    <glyph glyph-name="hbar" unicode="&#x127;" horiz-adv-x="1091" 
d="M119 0v1153h-109v190h109v191h248v-191h245v-190h-245v-381q59 77 123 110t155 33q79 0 146.5 -28t111.5 -80q39 -46 54.5 -101.5t15.5 -148.5v-557h-248v485q0 105 -25 148q-19 33 -57.5 52.5t-87.5 19.5q-95 0 -141.5 -61.5t-46.5 -188.5v-455h-248z" />
    <glyph glyph-name="Itilde" unicode="&#x128;" horiz-adv-x="579" 
d="M57 1522h-139q17 119 75.5 187.5t143.5 68.5q55 0 164 -41q66 -26 86.5 -31.5t42.5 -5.5q29 0 47 15t43 61h142q-25 -122 -88.5 -190t-153.5 -68q-53 0 -144 36q-104 39 -137 39q-54 0 -82 -71zM158 0v1366h266v-1366h-266z" />
    <glyph glyph-name="itilde" unicode="&#x129;" horiz-adv-x="479" 
d="M8 1071h-139q17 119 75.5 187.5t143.5 68.5q55 0 164 -41q66 -26 86.5 -31.5t42.5 -5.5q29 0 47 15t43 61h141q-25 -122 -88 -190t-153 -68q-51 0 -144 37q-104 39 -137 39q-54 0 -82 -72zM117 0v887h248v-887h-248z" />
    <glyph glyph-name="Imacron" unicode="&#x12a;" horiz-adv-x="579" 
d="M33 1542v164h526v-164h-526zM156 0v1366h266v-1366h-266z" />
    <glyph glyph-name="imacron" unicode="&#x12b;" horiz-adv-x="479" 
d="M-2 1128v164h500v-164h-500zM117 0v887h248v-887h-248z" />
    <glyph glyph-name="Iogonek" unicode="&#x12e;" horiz-adv-x="579" 
d="M158 0v1366h266v-1366h-49q-123 -92 -123 -168q0 -35 24.5 -58.5t61.5 -23.5q51 0 113 39l-35 -160q-57 -32 -142 -32q-91 0 -148.5 48.5t-57.5 123.5q0 60 39 114.5t124 116.5h-73z" />
    <glyph glyph-name="iogonek" unicode="&#x12f;" horiz-adv-x="477" 
d="M240 1112q-62 0 -106 44.5t-44 107.5q0 60 44.5 103.5t105.5 43.5q62 0 105.5 -43.5t43.5 -105.5t-44 -106t-105 -44zM115 0v887h247v-887h-51q-62 -44 -88 -79t-26 -73q0 -35 25 -58t63 -23q45 0 98 26l-29 -137q-59 -35 -133 -35q-75 0 -127.5 46t-52.5 112
q0 46 24.5 93.5t65.5 84.5q8 7 59 43h-75z" />
    <glyph glyph-name="Idotaccent" unicode="&#x130;" horiz-adv-x="579" 
d="M297 1501q-65 0 -110.5 46t-45.5 112q0 61 46.5 106t109.5 45t108.5 -45t45.5 -108q0 -64 -45.5 -110t-108.5 -46zM156 0v1366h266v-1366h-266z" />
    <glyph glyph-name="dotlessi" unicode="&#x131;" horiz-adv-x="479" 
d="M117 0v887h248v-887h-248z" />
    <glyph glyph-name="Jcircumflex" unicode="&#x134;" horiz-adv-x="798" 
d="M283 1491l-123 123l346 282l352 -282l-127 -123l-225 188zM-55 96l159 195q54 -78 134 -78q41 0 73 22t45 60q19 53 19 192v879h266v-922q0 -141 -29 -232t-92 -151q-105 -94 -256 -94q-181 0 -319 129z" />
    <glyph glyph-name="jcircumflex" unicode="&#x135;" horiz-adv-x="477" 
d="M12 1042l-123 123l347 283l352 -283l-127 -123l-225 189zM115 8v879h247v-918q0 -131 -26.5 -216t-83.5 -142q-102 -86 -240 -86q-169 0 -297 119l150 182q47 -72 123 -72q39 0 68.5 19.5t41.5 54.5q17 52 17 180z" />
    <glyph glyph-name="uni0136" unicode="&#x136;" horiz-adv-x="1304" 
d="M158 0v1366h266v-578l502 578h336l-578 -631l608 -735h-350l-485 614l-33 -32v-582h-266zM559 -109l221 -18l-231 -367l-137 15z" />
    <glyph glyph-name="uni0137" unicode="&#x137;" horiz-adv-x="1058" 
d="M119 0v1534h248v-971l331 324h336l-416 -389l449 -498h-342l-332 381l-26 -27v-354h-248zM434 -109l207 -18l-223 -346l-131 14z" />
    <glyph glyph-name="kgreenlandic" unicode="&#x138;" horiz-adv-x="1058" 
d="M119 0v887h248v-324l356 324h315l-420 -389l449 -498h-342l-332 381l-26 -27v-354h-248z" />
    <glyph glyph-name="Lacute" unicode="&#x139;" horiz-adv-x="870" 
d="M344 1491l-88 96l258 275l152 -138zM158 0v1366h266v-1135h420v-231h-686z" />
    <glyph glyph-name="lacute" unicode="&#x13a;" horiz-adv-x="485" 
d="M262 1567l-88 96l246 262l147 -137zM119 0v1534h248v-1534h-248z" />
    <glyph glyph-name="uni013B" unicode="&#x13b;" horiz-adv-x="870" 
d="M158 0v1366h266v-1135h420v-231h-686zM395 -109l221 -18l-231 -367l-137 15z" />
    <glyph glyph-name="uni013C" unicode="&#x13c;" horiz-adv-x="485" 
d="M119 0v1534h248v-1534h-248zM137 -109l207 -18l-223 -346l-131 14z" />
    <glyph glyph-name="Lcaron" unicode="&#x13d;" horiz-adv-x="870" 
d="M492 1001l147 371l221 -18l-229 -367zM158 0v1366h266v-1135h420v-231h-686z" />
    <glyph glyph-name="lcaron" unicode="&#x13e;" horiz-adv-x="804" 
d="M436 1178l148 364l207 -18l-224 -361zM119 0v1534h248v-1534h-248z" />
    <glyph glyph-name="Lslash" unicode="&#x141;" horiz-adv-x="870" 
d="M154 0v545l-146 -101v236l146 98v588h266v-444l252 170v-236l-252 -168v-457h424v-231h-690z" />
    <glyph glyph-name="lslash" unicode="&#x142;" horiz-adv-x="550" 
d="M150 0v686l-150 -106v227l150 100v627h247v-510l154 113v-230l-154 -106v-801h-247z" />
    <glyph glyph-name="Nacute" unicode="&#x143;" horiz-adv-x="1595" 
d="M827 1491l-88 96l258 275l152 -138zM158 0v1397h184l832 -951v920h266v-1393h-185l-831 951v-924h-266z" />
    <glyph glyph-name="nacute" unicode="&#x144;" horiz-adv-x="1091" 
d="M586 1042l-103 82l207 310l168 -115zM119 0v887h248v-111q58 75 122.5 107t155.5 32q78 0 146 -27.5t112 -78.5q38 -44 54 -99.5t16 -146.5v-563h-248v492q0 100 -25 143q-19 32 -57.5 51t-87.5 19q-96 0 -142 -60t-46 -186v-459h-248z" />
    <glyph glyph-name="uni0145" unicode="&#x145;" horiz-adv-x="1595" 
d="M158 0v1397h184l832 -951v920h266v-1393h-185l-831 951v-924h-266zM715 -109l221 -18l-231 -367l-138 15z" />
    <glyph glyph-name="uni0146" unicode="&#x146;" horiz-adv-x="1091" 
d="M119 0v887h248v-111q58 75 122.5 107t155.5 32q78 0 146 -27.5t112 -78.5q38 -44 54 -99.5t16 -146.5v-563h-248v492q0 100 -25 143q-19 32 -57.5 51t-87.5 19q-96 0 -142 -60t-46 -186v-459h-248zM440 -109l207 -18l-223 -346l-131 14z" />
    <glyph glyph-name="Ncaron" unicode="&#x147;" horiz-adv-x="1595" 
d="M803 1491l-346 285l123 120l223 -182l225 182l127 -120zM158 0v1397h184l832 -951v920h266v-1393h-185l-831 951v-924h-266z" />
    <glyph glyph-name="ncaron" unicode="&#x148;" horiz-adv-x="1091" 
d="M551 1042l-346 285l123 121l223 -186l225 186l127 -121zM119 0v887h248v-111q58 75 122.5 107t155.5 32q78 0 146 -27.5t112 -78.5q38 -44 54 -99.5t16 -146.5v-563h-248v492q0 100 -25 143q-19 32 -57.5 51t-87.5 19q-96 0 -142 -60t-46 -186v-459h-248z" />
    <glyph glyph-name="Eng" unicode="&#x14a;" horiz-adv-x="1595" 
d="M158 0v1397h184l832 -951v920h266v-1364q0 -140 -28.5 -231.5t-90.5 -153.5q-110 -92 -256 -92q-184 0 -320 127l160 196q50 -77 133 -77q41 0 73.5 21t45.5 58q17 55 17 193v25l-750 856v-924h-266z" />
    <glyph glyph-name="eng" unicode="&#x14b;" horiz-adv-x="1091" 
d="M119 0v887h248v-111q58 75 122.5 107t155.5 32q78 0 146 -27.5t112 -78.5q38 -44 54 -99.5t16 -146.5v-594q0 -131 -26.5 -215.5t-84.5 -142.5q-102 -86 -239 -86q-169 0 -297 119l149 182q47 -72 123 -72q39 0 69 19.5t42 54.5q16 49 16 180v484q0 100 -25 143
q-19 32 -57.5 51t-87.5 19q-96 0 -142 -60t-46 -186v-459h-248z" />
    <glyph glyph-name="Omacron" unicode="&#x14c;" horiz-adv-x="1636" 
d="M489 1542v164h682v-164h-682zM88 692q0 191 98 353.5t266.5 257t368.5 94.5q201 0 368 -94.5t263 -259t96 -361.5q0 -198 -97 -361.5t-266 -257.5t-374 -94q-151 0 -285.5 55.5t-230.5 151.5t-151.5 230.5t-55.5 285.5zM362 688q0 -198 133.5 -336.5t323.5 -138.5
q123 0 228 63t166 171.5t61 236.5q0 195 -134 332t-323 137q-186 0 -320.5 -137.5t-134.5 -327.5z" />
    <glyph glyph-name="omacron" unicode="&#x14d;" horiz-adv-x="1157" 
d="M264 1128v164h656v-164h-656zM72 451q0 203 143.5 333.5t366.5 130.5q222 0 362.5 -132t140.5 -339q0 -211 -142.5 -342t-369.5 -131q-223 0 -362 133t-139 347zM328 446q0 -105 73.5 -178t178.5 -73q103 0 176 72t73 175q0 104 -73.5 177t-177.5 73q-101 0 -175.5 -73
t-74.5 -173z" />
    <glyph glyph-name="Ohungarumlaut" unicode="&#x150;" horiz-adv-x="1636" 
d="M1028 1491l-88 96l258 275l152 -138zM633 1491l-88 96l258 275l151 -138zM88 692q0 191 98 353.5t266.5 257t368.5 94.5q201 0 368 -94.5t263 -259t96 -361.5q0 -198 -97 -361.5t-266 -257.5t-374 -94q-151 0 -285.5 55.5t-230.5 151.5t-151.5 230.5t-55.5 285.5z
M362 688q0 -198 133.5 -336.5t323.5 -138.5q123 0 228 63t166 171.5t61 236.5q0 195 -134 332t-323 137q-186 0 -320.5 -137.5t-134.5 -327.5z" />
    <glyph glyph-name="ohungarumlaut" unicode="&#x151;" horiz-adv-x="1157" 
d="M801 1042l-101 82l205 310l168 -115zM418 1042l-101 82l207 310l168 -115zM72 451q0 203 143.5 333.5t366.5 130.5q222 0 362.5 -132t140.5 -339q0 -211 -142.5 -342t-369.5 -131q-223 0 -362 133t-139 347zM328 446q0 -105 73.5 -178t178.5 -73q103 0 176 72t73 175
q0 104 -73.5 177t-177.5 73q-101 0 -175.5 -73t-74.5 -173z" />
    <glyph glyph-name="OE" unicode="&#x152;" horiz-adv-x="2123" 
d="M88 680q0 145 56.5 278t152 229t227.5 153t277 57q195 0 342 -92q59 -37 139 -123v184h741v-231h-479v-306h459v-231h-459v-367h479v-231h-741v184q-99 -112 -213.5 -163.5t-261.5 -51.5q-148 0 -281 56t-229 151t-152.5 226.5t-56.5 277.5zM362 688q0 -201 126.5 -338
t312.5 -137q190 0 322 136t132 333q0 127 -61.5 235.5t-166.5 172t-228 63.5q-117 0 -218 -63t-160 -170t-59 -232z" />
    <glyph glyph-name="oe" unicode="&#x153;" horiz-adv-x="1810" 
d="M72 440q0 206 139.5 340.5t353.5 134.5q229 0 371 -161q61 83 145 122t201 39q210 0 333.5 -126.5t123.5 -342.5v-43h-674q7 -112 67 -175.5t158 -63.5q136 0 207 123l229 -39q-54 -135 -166.5 -206t-273.5 -71q-227 0 -350 172q-85 -95 -168.5 -133.5t-206.5 -38.5
q-212 0 -350.5 132.5t-138.5 336.5zM1073 561h426q-46 176 -211 176q-166 0 -215 -176zM328 449q0 -107 69 -180.5t170 -73.5q103 0 173.5 72t70.5 179q0 103 -69.5 173.5t-172.5 70.5q-101 0 -171 -70t-70 -171z" />
    <glyph glyph-name="Racute" unicode="&#x154;" horiz-adv-x="1177" 
d="M516 1491l-88 96l258 275l152 -138zM158 0v1366h395q232 0 348 -96q63 -52 99 -134t36 -173q0 -92 -33 -171.5t-90 -129.5q-78 -67 -188 -87l430 -575h-328l-368 549h-35v-549h-266zM424 737h78q126 0 193 54t67 155t-65 153t-191 52h-82v-414z" />
    <glyph glyph-name="racute" unicode="&#x155;" horiz-adv-x="737" 
d="M430 1042l-100 82l205 310l170 -115zM119 0v887h248v-135q91 163 258 163q53 0 108 -22l-35 -231q-33 18 -56.5 24t-61.5 6q-101 0 -158 -63q-30 -35 -42.5 -81t-12.5 -122v-426h-248z" />
    <glyph glyph-name="uni0156" unicode="&#x156;" horiz-adv-x="1177" 
d="M158 0v1366h395q232 0 348 -96q63 -52 99 -134t36 -173q0 -92 -33 -171.5t-90 -129.5q-78 -67 -188 -87l430 -575h-328l-368 549h-35v-549h-266zM424 737h78q126 0 193 54t67 155t-65 153t-191 52h-82v-414zM498 -109l221 -18l-232 -367l-137 15z" />
    <glyph glyph-name="uni0157" unicode="&#x157;" horiz-adv-x="737" 
d="M119 0v887h248v-135q91 163 258 163q53 0 108 -22l-35 -231q-33 18 -56.5 24t-61.5 6q-101 0 -158 -63q-30 -35 -42.5 -81t-12.5 -122v-426h-248zM154 -109l206 -18l-223 -346l-131 14z" />
    <glyph glyph-name="Rcaron" unicode="&#x158;" horiz-adv-x="1177" 
d="M553 1491l-346 285l123 120l223 -182l225 182l127 -120zM158 0v1366h395q232 0 348 -96q63 -52 99 -134t36 -173q0 -92 -33 -171.5t-90 -129.5q-78 -67 -188 -87l430 -575h-328l-368 549h-35v-549h-266zM424 737h78q126 0 193 54t67 155t-65 153t-191 52h-82v-414z" />
    <glyph glyph-name="rcaron" unicode="&#x159;" horiz-adv-x="737" 
d="M408 1042l-347 285l123 121l224 -186l225 186l127 -121zM121 0v887h248v-135q91 163 258 163q53 0 108 -22l-35 -231q-33 18 -56.5 24t-61.5 6q-101 0 -158 -63q-30 -35 -42.5 -81t-12.5 -122v-426h-248z" />
    <glyph glyph-name="Sacute" unicode="&#x15a;" horiz-adv-x="1089" 
d="M559 1491l-88 96l258 275l152 -138zM68 227l172 166q46 -88 120 -135t166 -47q91 0 151 54.5t60 137.5q0 86 -73 138q-34 25 -191 82q-184 66 -260 149.5t-76 218.5q0 172 121 285t305 113q227 0 402 -152l-140 -182q-52 58 -104 84t-117 26q-81 0 -136.5 -44t-55.5 -107
q0 -56 43 -92t163 -80q113 -41 170 -69.5t103 -67.5q121 -103 121 -287q0 -201 -131.5 -326t-343.5 -125q-148 0 -262.5 63.5t-206.5 196.5z" />
    <glyph glyph-name="sacute" unicode="&#x15b;" horiz-adv-x="829" 
d="M469 1042l-100 82l204 310l168 -115zM63 119l130 151q104 -104 210 -104q47 0 80 28.5t33 69.5q0 38 -26 59t-111 52q-90 34 -116 45.5t-54 32.5q-88 61 -88 184q0 125 89 204t228 79q159 0 289 -95l-123 -145q-77 57 -147 57q-41 0 -69 -21.5t-28 -53.5q0 -29 29 -49.5
t113 -49.5q117 -41 172 -80q98 -70 98 -194q0 -139 -105 -228.5t-268 -89.5q-96 0 -183.5 38.5t-152.5 109.5z" />
    <glyph glyph-name="Scircumflex" unicode="&#x15c;" horiz-adv-x="1089" 
d="M340 1491l-123 123l346 282l352 -282l-127 -123l-225 188zM68 227l172 166q46 -88 120 -135t166 -47q91 0 151 54.5t60 137.5q0 86 -73 138q-34 25 -191 82q-184 66 -260 149.5t-76 218.5q0 172 121 285t305 113q227 0 402 -152l-140 -182q-52 58 -104 84t-117 26
q-81 0 -136.5 -44t-55.5 -107q0 -56 43 -92t163 -80q113 -41 170 -69.5t103 -67.5q121 -103 121 -287q0 -201 -131.5 -326t-343.5 -125q-148 0 -262.5 63.5t-206.5 196.5z" />
    <glyph glyph-name="scircumflex" unicode="&#x15d;" horiz-adv-x="829" 
d="M211 1042l-123 123l346 283l352 -283l-127 -123l-225 189zM63 119l130 151q104 -104 210 -104q47 0 80 28.5t33 69.5q0 38 -26 59t-111 52q-90 34 -116 45.5t-54 32.5q-88 61 -88 184q0 125 89 204t228 79q159 0 289 -95l-123 -145q-77 57 -147 57q-41 0 -69 -21.5
t-28 -53.5q0 -29 29 -49.5t113 -49.5q117 -41 172 -80q98 -70 98 -194q0 -139 -105 -228.5t-268 -89.5q-96 0 -183.5 38.5t-152.5 109.5z" />
    <glyph glyph-name="Scedilla" unicode="&#x15e;" horiz-adv-x="1089" 
d="M68 227l172 166q46 -88 120 -135t166 -47q91 0 151 54.5t60 137.5q0 86 -73 138q-34 25 -191 82q-184 66 -260 149.5t-76 218.5q0 172 121 285t305 113q227 0 402 -152l-140 -182q-52 58 -104 84t-117 26q-81 0 -136.5 -44t-55.5 -107q0 -56 43 -92t163 -80
q113 -41 170 -69.5t103 -67.5q121 -103 121 -287q0 -201 -131.5 -326t-343.5 -125q-148 0 -262.5 63.5t-206.5 196.5zM434 -109l221 -18l-231 -367l-137 15z" />
    <glyph glyph-name="scedilla" unicode="&#x15f;" horiz-adv-x="829" 
d="M63 119l130 151q104 -104 210 -104q47 0 80 28.5t33 69.5q0 38 -26 59t-111 52q-90 34 -116 45.5t-54 32.5q-88 61 -88 184q0 125 89 204t228 79q159 0 289 -95l-123 -145q-77 57 -147 57q-41 0 -69 -21.5t-28 -53.5q0 -29 29 -49.5t113 -49.5q117 -41 172 -80
q98 -70 98 -194q0 -139 -105 -228.5t-268 -89.5q-96 0 -183.5 38.5t-152.5 109.5zM313 -109l207 -18l-223 -346l-131 14z" />
    <glyph glyph-name="Scaron" unicode="&#x160;" horiz-adv-x="1089" 
d="M563 1491l-346 285l123 120l223 -182l225 182l127 -120zM68 227l172 166q46 -88 120 -135t166 -47q91 0 151 54.5t60 137.5q0 86 -73 138q-34 25 -191 82q-184 66 -260 149.5t-76 218.5q0 172 121 285t305 113q227 0 402 -152l-140 -182q-52 58 -104 84t-117 26
q-81 0 -136.5 -44t-55.5 -107q0 -56 43 -92t163 -80q113 -41 170 -69.5t103 -67.5q121 -103 121 -287q0 -201 -131.5 -326t-343.5 -125q-148 0 -262.5 63.5t-206.5 196.5z" />
    <glyph glyph-name="scaron" unicode="&#x161;" horiz-adv-x="829" 
d="M446 1042l-346 285l123 121l223 -186l226 186l127 -121zM63 119l130 151q104 -104 210 -104q47 0 80 28.5t33 69.5q0 38 -26 59t-111 52q-90 34 -116 45.5t-54 32.5q-88 61 -88 184q0 125 89 204t228 79q159 0 289 -95l-123 -145q-77 57 -147 57q-41 0 -69 -21.5
t-28 -53.5q0 -29 29 -49.5t113 -49.5q117 -41 172 -80q98 -70 98 -194q0 -139 -105 -228.5t-268 -89.5q-96 0 -183.5 38.5t-152.5 109.5z" />
    <glyph glyph-name="uni0162" unicode="&#x162;" horiz-adv-x="907" 
d="M319 0v1135h-305v231h879v-231h-307v-1135h-267zM348 -109l221 -18l-231 -367l-137 15z" />
    <glyph glyph-name="uni0163" unicode="&#x163;" horiz-adv-x="552" 
d="M121 0v672h-98v215h98v303h248v-303h174v-215h-174v-672h-248zM143 -109l207 -18l-223 -346l-131 14z" />
    <glyph glyph-name="Tcaron" unicode="&#x164;" horiz-adv-x="907" 
d="M457 1491l-346 285l122 120l224 -182l225 182l127 -120zM319 0v1135h-305v231h879v-231h-307v-1135h-267z" />
    <glyph glyph-name="tcaron" unicode="&#x165;" horiz-adv-x="804" 
d="M438 987l148 365l207 -19l-224 -360zM121 0v672h-98v215h98v303h248v-303h176v-215h-176v-672h-248z" />
    <glyph glyph-name="Tbar" unicode="&#x166;" horiz-adv-x="907" 
d="M319 0v580h-217v204h217v351h-305v231h879v-231h-307v-351h217v-204h-217v-580h-267z" />
    <glyph glyph-name="tbar" unicode="&#x167;" horiz-adv-x="552" 
d="M121 0v305h-98v215h98v152h-98v215h98v303h248v-303h176v-215h-176v-152h98v-215h-98v-305h-248z" />
    <glyph glyph-name="Utilde" unicode="&#x168;" horiz-adv-x="1411" 
d="M350 1522q17 119 75.5 187.5t143.5 68.5q55 0 164 -41q66 -26 86.5 -31.5t42.5 -5.5q29 0 47 15t43 61h142q-25 -122 -88.5 -190t-153.5 -68q-52 0 -143 36q-104 39 -138 39q-54 0 -82 -71h-139zM258 166q-100 131 -100 364v836h266v-782q0 -104 8.5 -152t34.5 -92
q34 -58 98.5 -92.5t141.5 -34.5q76 0 140.5 34t98.5 93q26 44 34.5 92t8.5 152v782h266v-836q0 -233 -100 -364q-71 -92 -190 -144.5t-258 -52.5q-138 0 -258.5 52.5t-190.5 144.5z" />
    <glyph glyph-name="utilde" unicode="&#x169;" horiz-adv-x="1095" 
d="M182 1071q17 119 75.5 187.5t143.5 68.5q55 0 164 -41q66 -26 86.5 -31.5t42.5 -5.5q29 0 47 15t43 61h142q-25 -122 -88.5 -190t-153.5 -68q-50 0 -143 37q-104 39 -138 39q-53 0 -81 -72h-140zM119 344v543h248v-502q0 -203 182 -203q180 0 180 203v502h248v-543
q0 -180 -111 -276.5t-317 -96.5q-207 0 -318.5 96.5t-111.5 276.5z" />
    <glyph glyph-name="Umacron" unicode="&#x16a;" horiz-adv-x="1411" 
d="M379 1542v164h682v-164h-682zM258 166q-100 131 -100 364v836h266v-782q0 -104 8.5 -152t34.5 -92q34 -58 98.5 -92.5t141.5 -34.5q76 0 140.5 34t98.5 93q26 44 34.5 92t8.5 152v782h266v-836q0 -233 -100 -364q-71 -92 -190 -144.5t-258 -52.5q-138 0 -258.5 52.5
t-190.5 144.5z" />
    <glyph glyph-name="umacron" unicode="&#x16b;" horiz-adv-x="1095" 
d="M233 1128v164h656v-164h-656zM119 344v543h248v-502q0 -203 182 -203q180 0 180 203v502h248v-543q0 -180 -111 -276.5t-317 -96.5q-207 0 -318.5 96.5t-111.5 276.5z" />
    <glyph glyph-name="Ubreve" unicode="&#x16c;" horiz-adv-x="1411" 
d="M705 1497q-138 0 -228.5 77.5t-107.5 211.5h172q23 -69 62 -99t102 -30q64 0 103 30.5t62 98.5h172q-17 -134 -107.5 -211.5t-229.5 -77.5zM258 166q-100 131 -100 364v836h266v-782q0 -104 8.5 -152t34.5 -92q34 -58 98.5 -92.5t141.5 -34.5q76 0 140.5 34t98.5 93
q26 44 34.5 92t8.5 152v782h266v-836q0 -233 -100 -364q-71 -92 -190 -144.5t-258 -52.5q-138 0 -258.5 52.5t-190.5 144.5z" />
    <glyph glyph-name="ubreve" unicode="&#x16d;" horiz-adv-x="1095" 
d="M547 1042q-138 0 -228.5 77.5t-107.5 211.5h172q23 -69 62 -99t102 -30q64 0 103.5 30.5t62.5 98.5h172q-17 -134 -108 -211.5t-230 -77.5zM119 344v543h248v-502q0 -203 182 -203q180 0 180 203v502h248v-543q0 -180 -111 -276.5t-317 -96.5q-207 0 -318.5 96.5
t-111.5 276.5z" />
    <glyph glyph-name="Uring" unicode="&#x16e;" horiz-adv-x="1411" 
d="M727 1499q-82 0 -138.5 57.5t-56.5 139.5q0 77 57.5 133.5t135.5 56.5q82 0 138.5 -56t56.5 -136t-57 -137.5t-136 -57.5zM727 1616q31 0 53.5 23t22.5 55q0 31 -22.5 53t-53.5 22q-32 0 -55 -22t-23 -53q0 -32 23 -55t55 -23zM258 166q-100 131 -100 364v836h266v-782
q0 -104 8.5 -152t34.5 -92q34 -58 98.5 -92.5t141.5 -34.5q76 0 140.5 34t98.5 93q26 44 34.5 92t8.5 152v782h266v-836q0 -233 -100 -364q-71 -92 -190 -144.5t-258 -52.5q-138 0 -258.5 52.5t-190.5 144.5z" />
    <glyph glyph-name="uring" unicode="&#x16f;" horiz-adv-x="1095" 
d="M561 1042q-78 0 -133 56t-55 135q0 75 56 130.5t132 55.5q78 0 133.5 -55t55.5 -133t-55.5 -133.5t-133.5 -55.5zM561 1159q29 0 50.5 21.5t21.5 50.5t-21.5 50.5t-50.5 21.5t-50.5 -21.5t-21.5 -50.5t21.5 -50.5t50.5 -21.5zM119 344v543h248v-502q0 -203 182 -203
q180 0 180 203v502h248v-543q0 -180 -111 -276.5t-317 -96.5q-207 0 -318.5 96.5t-111.5 276.5z" />
    <glyph glyph-name="Uhungarumlaut" unicode="&#x170;" horiz-adv-x="1411" 
d="M897 1491l-88 96l258 275l152 -138zM502 1491l-88 96l258 275l151 -138zM258 166q-100 131 -100 364v836h266v-782q0 -104 8.5 -152t34.5 -92q34 -58 98.5 -92.5t141.5 -34.5q76 0 140.5 34t98.5 93q26 44 34.5 92t8.5 152v782h266v-836q0 -233 -100 -364
q-71 -92 -190 -144.5t-258 -52.5q-138 0 -258.5 52.5t-190.5 144.5z" />
    <glyph glyph-name="uhungarumlaut" unicode="&#x171;" horiz-adv-x="1095" 
d="M768 1042l-100 82l204 310l168 -115zM385 1042l-100 82l207 310l167 -115zM119 344v543h248v-502q0 -203 182 -203q180 0 180 203v502h248v-543q0 -180 -111 -276.5t-317 -96.5q-207 0 -318.5 96.5t-111.5 276.5z" />
    <glyph glyph-name="Uogonek" unicode="&#x172;" horiz-adv-x="1411" 
d="M258 166q-100 131 -100 364v836h266v-782q0 -104 8.5 -152t34.5 -92q34 -58 98.5 -92.5t141.5 -34.5q76 0 140.5 34t98.5 93q26 44 34.5 92t8.5 152v782h266v-836q0 -175 -55 -288t-174 -191q-77 -51 -118.5 -108.5t-41.5 -106.5q0 -38 23.5 -62t60.5 -24q53 0 115 39
l-35 -160q-57 -32 -141 -32q-89 0 -148 48.5t-59 121.5q0 101 102 206q-37 -4 -82 -4q-135 0 -255 53t-189 144z" />
    <glyph glyph-name="uogonek" unicode="&#x173;" horiz-adv-x="1095" 
d="M119 344v543h248v-502q0 -203 182 -203q180 0 180 203v502h248v-543q0 -107 -37.5 -179.5t-118.5 -127.5q-61 -41 -96 -92.5t-35 -96.5q0 -35 25 -58t63 -23q46 0 99 26l-29 -137q-56 -35 -129 -35q-78 0 -131 46t-53 112q0 102 88 196q-58 -4 -78 -4q-204 0 -315 97
t-111 276z" />
    <glyph glyph-name="Wcircumflex" unicode="&#x174;" horiz-adv-x="1998" 
d="M770 1491l-123 123l346 282l353 -282l-127 -123l-226 188zM485 -27l-483 1393h281l307 -930l334 942h145l317 -942l328 930h281l-514 -1393h-187l-303 893l-319 -893h-187z" />
    <glyph glyph-name="wcircumflex" unicode="&#x175;" horiz-adv-x="1622" 
d="M584 1042l-123 123l346 283l352 -283l-127 -123l-225 189zM457 -18l-455 905h279l233 -512l242 536h106l242 -544l237 520h277l-459 -905h-112l-240 538l-236 -538h-114z" />
    <glyph glyph-name="Ycircumflex" unicode="&#x176;" horiz-adv-x="1193" 
d="M371 1491l-123 123l346 282l352 -282l-127 -123l-225 188zM461 0v627l-471 739h315l295 -475l289 475h317l-479 -739v-627h-266z" />
    <glyph glyph-name="ycircumflex" unicode="&#x177;" horiz-adv-x="1095" 
d="M322 1042l-123 123l346 283l352 -283l-127 -123l-225 189zM422 135l-420 752h289l266 -504l252 504h285l-717 -1360h-281z" />
    <glyph glyph-name="Ydieresis" unicode="&#x178;" horiz-adv-x="1193" 
d="M821 1516q-61 0 -104 43.5t-43 105.5q0 59 43.5 102t103.5 43q62 0 105 -43t43 -104q0 -60 -43.5 -103.5t-104.5 -43.5zM389 1516q-61 0 -104 43.5t-43 105.5q0 59 43.5 102t103.5 43q62 0 105 -43t43 -104q0 -60 -43.5 -103.5t-104.5 -43.5zM461 0v627l-471 739h315
l295 -475l289 475h317l-479 -739v-627h-266z" />
    <glyph glyph-name="Zacute" unicode="&#x179;" horiz-adv-x="1196" 
d="M670 1491l-88 96l256 275l153 -138zM43 0l668 1135h-564v231h1004l-666 -1135h629v-231h-1071z" />
    <glyph glyph-name="zacute" unicode="&#x17a;" horiz-adv-x="993" 
d="M567 1042l-100 82l207 310l168 -115zM27 0l503 676h-426v215h863l-502 -676h469v-215h-907z" />
    <glyph glyph-name="Zdotaccent" unicode="&#x17b;" horiz-adv-x="1196" 
d="M680 1501q-65 0 -110.5 46t-45.5 112q0 61 46.5 106t109.5 45t108.5 -45t45.5 -108q0 -64 -45.5 -110t-108.5 -46zM43 0l668 1135h-564v231h1004l-666 -1135h629v-231h-1071z" />
    <glyph glyph-name="zdotaccent" unicode="&#x17c;" horiz-adv-x="993" 
d="M565 1053q-65 0 -110 45.5t-45 111.5q0 62 46 107t109 45t108.5 -45.5t45.5 -108.5q0 -64 -45.5 -109.5t-108.5 -45.5zM27 0l503 676h-426v215h863l-502 -676h469v-215h-907z" />
    <glyph glyph-name="Zcaron" unicode="&#x17d;" horiz-adv-x="1196" 
d="M662 1491l-347 285l123 120l224 -182l225 182l127 -120zM43 0l668 1135h-564v231h1004l-666 -1135h629v-231h-1071z" />
    <glyph glyph-name="zcaron" unicode="&#x17e;" horiz-adv-x="993" 
d="M549 1042l-346 285l123 121l223 -186l225 186l127 -121zM27 0l503 676h-426v215h863l-502 -676h469v-215h-907z" />
    <glyph glyph-name="florin" unicode="&#x192;" 
d="M39 -66q70 -4 72 -4q82 0 129.5 29t78.5 100.5t56 210.5l90 510h-121l18 131h127l41 230q64 364 381 364q53 0 88 -8t82 -31l-39 -221q-65 33 -116 33q-62 0 -97 -45t-55 -150l-33 -172h217l-22 -131h-217l-98 -547q-31 -173 -71 -270t-108 -160q-54 -50 -142.5 -77
t-197.5 -27l-104 6z" />
    <glyph glyph-name="uni0218" unicode="&#x218;" horiz-adv-x="1089" 
d="M68 227l172 166q46 -88 120 -135t166 -47q91 0 151 54.5t60 137.5q0 86 -73 138q-34 25 -191 82q-184 66 -260 149.5t-76 218.5q0 172 121 285t305 113q227 0 402 -152l-140 -182q-52 58 -104 84t-117 26q-81 0 -136.5 -44t-55.5 -107q0 -56 43 -92t163 -80
q113 -41 170 -69.5t103 -67.5q121 -103 121 -287q0 -201 -131.5 -326t-343.5 -125q-148 0 -262.5 63.5t-206.5 196.5zM365 -365l200 273l160 -88l-236 -256z" />
    <glyph glyph-name="uni0219" unicode="&#x219;" horiz-adv-x="829" 
d="M63 119l130 151q104 -104 210 -104q47 0 80 28.5t33 69.5q0 38 -26 59t-111 52q-90 34 -116 45.5t-54 32.5q-88 61 -88 184q0 125 89 204t228 79q159 0 289 -95l-123 -145q-77 57 -147 57q-41 0 -69 -21.5t-28 -53.5q0 -29 29 -49.5t113 -49.5q117 -41 172 -80
q98 -70 98 -194q0 -139 -105 -228.5t-268 -89.5q-96 0 -183.5 38.5t-152.5 109.5zM236 -365l200 273l160 -88l-236 -256z" />
    <glyph glyph-name="uni021A" unicode="&#x21a;" horiz-adv-x="907" 
d="M319 0v1135h-305v231h879v-231h-307v-1135h-267zM348 -109l221 -18l-231 -367l-137 15z" />
    <glyph glyph-name="uni021B" unicode="&#x21b;" horiz-adv-x="552" 
d="M121 0v672h-98v215h98v303h248v-303h174v-215h-174v-672h-248zM143 -109l207 -18l-223 -346l-131 14z" />
    <glyph glyph-name="circumflex" unicode="&#x2c6;" horiz-adv-x="1024" 
d="M287 1042l-123 123l346 283l352 -283l-127 -123l-225 189z" />
    <glyph glyph-name="ring" unicode="&#x2da;" horiz-adv-x="1024" 
d="M512 1042q-78 0 -133 56t-55 135q0 75 56 130.5t132 55.5q78 0 133 -55t55 -133t-55 -133.5t-133 -55.5zM512 1159q29 0 50.5 21.5t21.5 50.5t-21.5 50.5t-50.5 21.5t-50.5 -21.5t-21.5 -50.5t21.5 -50.5t50.5 -21.5z" />
    <glyph glyph-name="tilde" unicode="&#x2dc;" horiz-adv-x="1024" 
d="M141 1071q17 119 75.5 187.5t143.5 68.5q55 0 164 -41q66 -26 86.5 -31.5t42.5 -5.5q29 0 47 15t43 61h142q-25 -122 -88.5 -190t-153.5 -68q-50 0 -143 37q-104 39 -138 39q-53 0 -81 -72h-140z" />
    <glyph glyph-name="uni2000" unicode="&#x2000;" horiz-adv-x="962" 
 />
    <glyph glyph-name="uni2001" unicode="&#x2001;" horiz-adv-x="1925" 
 />
    <glyph glyph-name="uni2002" unicode="&#x2002;" horiz-adv-x="962" 
 />
    <glyph glyph-name="uni2003" unicode="&#x2003;" horiz-adv-x="1925" 
 />
    <glyph glyph-name="uni2004" unicode="&#x2004;" horiz-adv-x="641" 
 />
    <glyph glyph-name="uni2005" unicode="&#x2005;" horiz-adv-x="481" 
 />
    <glyph glyph-name="uni2006" unicode="&#x2006;" horiz-adv-x="320" 
 />
    <glyph glyph-name="uni2007" unicode="&#x2007;" horiz-adv-x="320" 
 />
    <glyph glyph-name="uni2008" unicode="&#x2008;" horiz-adv-x="240" 
 />
    <glyph glyph-name="uni2009" unicode="&#x2009;" horiz-adv-x="385" 
 />
    <glyph glyph-name="uni200A" unicode="&#x200a;" horiz-adv-x="106" 
 />
    <glyph glyph-name="uni2010" unicode="&#x2010;" horiz-adv-x="460" 
d="M0 367v206h461v-206h-461z" />
    <glyph glyph-name="uni2011" unicode="&#x2011;" horiz-adv-x="460" 
d="M0 367v206h461v-206h-461z" />
    <glyph glyph-name="figuredash" unicode="&#x2012;" horiz-adv-x="460" 
d="M0 367v206h461v-206h-461z" />
    <glyph glyph-name="endash" unicode="&#x2013;" 
d="M154 367v206h852v-206h-852z" />
    <glyph glyph-name="emdash" unicode="&#x2014;" horiz-adv-x="1378" 
d="M0 367v206h1378v-206h-1378z" />
    <glyph glyph-name="quoteleft" unicode="&#x2018;" horiz-adv-x="624" 
d="M88 848l289 545l158 -21l-220 -551z" />
    <glyph glyph-name="quoteright" unicode="&#x2019;" horiz-adv-x="595" 
d="M47 842l219 551l228 -27l-289 -545z" />
    <glyph glyph-name="quotesinglbase" unicode="&#x201a;" horiz-adv-x="595" 
d="M47 -268l219 551l228 -27l-289 -543z" />
    <glyph glyph-name="quotedblleft" unicode="&#x201c;" horiz-adv-x="1009" 
d="M473 848l289 545l158 -21l-218 -551zM88 848l289 545l158 -21l-220 -551z" />
    <glyph glyph-name="quotedblright" unicode="&#x201d;" horiz-adv-x="1009" 
d="M473 842l219 551l228 -27l-289 -545zM88 842l219 551l228 -27l-289 -545z" />
    <glyph glyph-name="quotedblbase" unicode="&#x201e;" horiz-adv-x="1009" 
d="M473 -268l219 551l228 -27l-289 -543zM88 -268l219 551l228 -27l-289 -543z" />
    <glyph glyph-name="dagger" unicode="&#x2020;" 
d="M463 -328v1323h-324v211h324v328h235v-328h324v-211h-324v-1323h-235z" />
    <glyph glyph-name="daggerdbl" unicode="&#x2021;" 
d="M139 305v211h324v438h-324v211h324v328h235v-328h324v-211h-324v-438h324v-211h-324v-674h-235v674h-324z" />
    <glyph glyph-name="bullet" unicode="&#x2022;" horiz-adv-x="1366" 
d="M686 410q-117 0 -201 82.5t-84 199.5q0 120 83.5 202.5t205.5 82.5q114 0 196.5 -83.5t82.5 -199.5q0 -118 -83 -201t-200 -83z" />
    <glyph glyph-name="onedotenleader" unicode="&#x2024;" horiz-adv-x="512" 
d="M96 162q0 66 47.5 113t112.5 47q67 0 114.5 -47t47.5 -113q0 -67 -47 -114.5t-113 -47.5q-68 0 -115 47t-47 115z" />
    <glyph glyph-name="twodotenleader" unicode="&#x2025;" horiz-adv-x="1024" 
d="M608 162q0 66 47.5 113t112.5 47q67 0 114.5 -47t47.5 -113q0 -67 -47 -114.5t-113 -47.5q-68 0 -115 47t-47 115zM96 162q0 66 47.5 113t112.5 47q67 0 114.5 -47t47.5 -113q0 -67 -47 -114.5t-113 -47.5q-68 0 -115 47t-47 115z" />
    <glyph glyph-name="ellipsis" unicode="&#x2026;" horiz-adv-x="1738" 
d="M1288 133q0 66 47.5 113t112.5 47q67 0 114.5 -47t47.5 -113q0 -67 -47 -114.5t-113 -47.5q-68 0 -115 47.5t-47 114.5zM709 133q0 66 47 113t112 47q67 0 114.5 -47t47.5 -113q0 -67 -47 -114.5t-113 -47.5q-67 0 -114 47t-47 115zM129 133q0 66 47.5 113t112.5 47
q67 0 114.5 -47t47.5 -113q0 -67 -47 -114.5t-113 -47.5q-67 0 -114.5 47.5t-47.5 114.5z" />
    <glyph glyph-name="uni202F" unicode="&#x202f;" horiz-adv-x="385" 
 />
    <glyph glyph-name="perthousand" unicode="&#x2030;" horiz-adv-x="2394" 
d="M332 6l813 1405l108 -61l-813 -1407zM406 735q-149 0 -247 93t-98 235q0 136 100 227.5t249 91.5t247.5 -91.5t98.5 -229.5q0 -141 -99 -233.5t-251 -92.5zM410 881q72 0 124 52.5t52 125.5q0 72 -52.5 124t-125.5 52q-72 0 -124.5 -51.5t-52.5 -122.5q0 -75 52.5 -127.5
t126.5 -52.5zM1638 307q0 135 100 226.5t249 91.5t247.5 -92t98.5 -230q0 -139 -100 -231t-251 -92q-149 0 -246.5 92.5t-97.5 234.5zM834 307q0 135 99.5 226.5t248.5 91.5q148 0 246 -92t98 -230q0 -140 -98.5 -231.5t-249.5 -91.5t-247.5 92t-96.5 235zM1808 305
q0 -75 52.5 -127.5t126.5 -52.5q72 0 124 52.5t52 125.5q0 72 -52.5 124t-125.5 52q-72 0 -124.5 -51.5t-52.5 -122.5zM1004 305q0 -75 51.5 -127.5t124.5 -52.5q72 0 124 52.5t52 125.5q0 72 -52 124t-124 52t-124 -51.5t-52 -122.5z" />
    <glyph glyph-name="minute" unicode="&#x2032;" horiz-adv-x="421" 
d="M121 803l-39 563h258l-39 -563h-180z" />
    <glyph glyph-name="second" unicode="&#x2033;" horiz-adv-x="804" 
d="M502 803l-37 563h258l-39 -563h-182zM121 803l-39 563h258l-39 -563h-180z" />
    <glyph glyph-name="guilsinglleft" unicode="&#x2039;" horiz-adv-x="649" 
d="M401 10l-319 434l319 439l144 -101l-248 -338l250 -329z" />
    <glyph glyph-name="guilsinglright" unicode="&#x203a;" horiz-adv-x="649" 
d="M102 115l252 329l-250 338l144 101l319 -439l-319 -434z" />
    <glyph glyph-name="fraction" unicode="&#x2044;" horiz-adv-x="292" 
d="M-205 -57l-108 63l813 1405l108 -61z" />
    <glyph glyph-name="uni205F" unicode="&#x205f;" horiz-adv-x="481" 
 />
    <glyph glyph-name="Euro" unicode="&#x20ac;" horiz-adv-x="1476" 
d="M51 467l74 176h131q-2 12 -2 33q0 32 2 57h-205l74 176h166q75 221 265 354.5t431 133.5q243 0 438 -142l-104 -254q-140 152 -338 152q-125 0 -232 -66t-165 -178h694l-74 -176h-674q-4 -25 -4 -49q0 -25 2 -41h637l-73 -176h-512q55 -117 164 -185.5t237 -68.5
q200 0 340 156v-322q-162 -78 -342 -78q-243 0 -434 137t-260 361h-236z" />
    <glyph glyph-name="trademark" unicode="&#x2122;" horiz-adv-x="1476" 
d="M532 588l140 792h127l190 -473l201 473h127l125 -792h-174l-60 428l-186 -438h-68l-180 438l-67 -428h-175zM162 588v624h-168v154h510v-154h-168v-624h-174z" />
    <glyph glyph-name="uni25FC" unicode="&#x25fc;" horiz-adv-x="890" 
d="M0 891h891v-891h-891v891z" />
    </font>
</defs>
</svg>
